<mxfile modified="2024-03-15T09:30:14.705Z" host="app.diagrams.net" agent="Mozilla/5.0 (Macintosh; Intel Mac OS X 10_15_7) AppleWebKit/537.36 (KHTML, like Gecko) Chrome/121.0.0.0 Safari/537.36" etag="Gqg2-_mIXkVfIAaQJsnt" version="22.1.16" type="github">
  <diagram id="WI9T0HZ2pTsCkuznbFz-" name="Page-1">
    <mxGraphModel dx="2074" dy="1121" grid="0" gridSize="10" guides="1" tooltips="1" connect="1" arrows="1" fold="1" page="1" pageScale="1" pageWidth="1169" pageHeight="827" math="0" shadow="0">
      <root>
        <mxCell id="0" />
        <mxCell id="1" parent="0" />
        <mxCell id="4arxPXuvVTtr_ZgHesPV-1" value="" style="rounded=1;whiteSpace=wrap;html=1;labelBackgroundColor=none;" parent="1" vertex="1">
          <mxGeometry x="251" y="423" width="640" height="372" as="geometry" />
        </mxCell>
        <mxCell id="4arxPXuvVTtr_ZgHesPV-63" value="" style="rounded=1;whiteSpace=wrap;html=1;rotation=90;fillColor=#EEF0F1;strokeColor=none;" parent="1" vertex="1">
          <mxGeometry x="683.9" y="531" width="240" height="111" as="geometry" />
        </mxCell>
        <mxCell id="4arxPXuvVTtr_ZgHesPV-6" value="" style="rounded=1;whiteSpace=wrap;html=1;labelBackgroundColor=none;" parent="1" vertex="1">
          <mxGeometry x="251" y="9" width="640" height="372" as="geometry" />
        </mxCell>
        <mxCell id="4arxPXuvVTtr_ZgHesPV-62" value="" style="rounded=1;whiteSpace=wrap;html=1;rotation=90;fillColor=#EEF0F1;strokeColor=none;" parent="1" vertex="1">
          <mxGeometry x="456.25" y="83.5" width="191" height="230" as="geometry" />
        </mxCell>
        <mxCell id="4arxPXuvVTtr_ZgHesPV-61" value="" style="rounded=1;whiteSpace=wrap;html=1;rotation=90;fillColor=#EEF0F1;strokeColor=none;" parent="1" vertex="1">
          <mxGeometry x="708.4" y="143" width="191" height="111" as="geometry" />
        </mxCell>
        <mxCell id="4arxPXuvVTtr_ZgHesPV-2" value="On-prem server - SIT external secure" style="text;html=1;strokeColor=none;fillColor=none;align=center;verticalAlign=middle;whiteSpace=wrap;rounded=0;fontSize=20;fontStyle=1;labelBackgroundColor=none;" parent="1" vertex="1">
          <mxGeometry x="271" y="443" width="363" height="30" as="geometry" />
        </mxCell>
        <mxCell id="4arxPXuvVTtr_ZgHesPV-9" value="" style="sketch=0;outlineConnect=0;fontColor=#232F3E;gradientColor=none;fillColor=#232F3D;strokeColor=none;dashed=0;verticalLabelPosition=bottom;verticalAlign=top;align=center;html=1;fontSize=12;fontStyle=0;aspect=fixed;pointerEvents=1;shape=mxgraph.aws4.question;" parent="1" vertex="1">
          <mxGeometry x="790.47" y="514" width="26.81" height="51" as="geometry" />
        </mxCell>
        <mxCell id="4arxPXuvVTtr_ZgHesPV-13" value="" style="endArrow=classic;rounded=0;fillColor=#647687;strokeColor=#314354;exitX=0.38;exitY=-0.047;exitDx=0;exitDy=0;exitPerimeter=0;" parent="1" source="4arxPXuvVTtr_ZgHesPV-20" target="4arxPXuvVTtr_ZgHesPV-9" edge="1">
          <mxGeometry width="50" height="50" relative="1" as="geometry">
            <mxPoint x="803.58" y="688" as="sourcePoint" />
            <mxPoint x="803.4768589165166" y="567.9437788246428" as="targetPoint" />
          </mxGeometry>
        </mxCell>
        <mxCell id="4arxPXuvVTtr_ZgHesPV-16" value="" style="endArrow=classic;html=1;rounded=0;verticalAlign=middle;horizontal=0;fillColor=#647687;strokeColor=#314354;entryX=0.493;entryY=0.965;entryDx=0;entryDy=0;entryPerimeter=0;" parent="1" source="4arxPXuvVTtr_ZgHesPV-9" target="4arxPXuvVTtr_ZgHesPV-32" edge="1">
          <mxGeometry width="50" height="50" relative="1" as="geometry">
            <mxPoint x="737.5" y="479" as="sourcePoint" />
            <mxPoint x="803.875" y="130" as="targetPoint" />
          </mxGeometry>
        </mxCell>
        <mxCell id="4arxPXuvVTtr_ZgHesPV-17" value="Azure&amp;nbsp;" style="text;html=1;strokeColor=none;fillColor=none;align=center;verticalAlign=middle;whiteSpace=wrap;rounded=0;fontSize=20;fontStyle=1;labelBackgroundColor=none;" parent="1" vertex="1">
          <mxGeometry x="271" y="28" width="94" height="30" as="geometry" />
        </mxCell>
        <mxCell id="4arxPXuvVTtr_ZgHesPV-18" value="" style="shape=image;verticalLabelPosition=bottom;labelBackgroundColor=#ffffff;verticalAlign=top;aspect=fixed;imageAspect=0;image=data:image/svg+xml,PHN2ZyB4bWxuczpjYz0iaHR0cDovL2NyZWF0aXZlY29tbW9ucy5vcmcvbnMjIiB4bWxuczpkYz0iaHR0cDovL3B1cmwub3JnL2RjL2VsZW1lbnRzLzEuMS8iIHhtbG5zOmlua3NjYXBlPSJodHRwOi8vd3d3Lmlua3NjYXBlLm9yZy9uYW1lc3BhY2VzL2lua3NjYXBlIiB4bWxuczpyZGY9Imh0dHA6Ly93d3cudzMub3JnLzE5OTkvMDIvMjItcmRmLXN5bnRheC1ucyMiIHhtbG5zOnNvZGlwb2RpPSJodHRwOi8vc29kaXBvZGkuc291cmNlZm9yZ2UubmV0L0RURC9zb2RpcG9kaS0wLmR0ZCIgeG1sbnM6c3ZnPSJodHRwOi8vd3d3LnczLm9yZy8yMDAwL3N2ZyIgeG1sbnM9Imh0dHA6Ly93d3cudzMub3JnLzIwMDAvc3ZnIiB4bWxuczp4bGluaz0iaHR0cDovL3d3dy53My5vcmcvMTk5OS94bGluayIgdmVyc2lvbj0iMS4xIiBpZD0ic3ZnMTY5NzMzIiBpbmtzY2FwZTp2ZXJzaW9uPSIwLjkyLjMgKDI0MDU1NDYsIDIwMTgtMDMtMTEpIiBzb2RpcG9kaTpkb2NuYW1lPSJvbl9wcmVtaXNlcy5zdmciIHg9IjBweCIgeT0iMHB4IiB2aWV3Qm94PSIwIDAgNDIuNzggNjguMjUiIHN0eWxlPSJlbmFibGUtYmFja2dyb3VuZDpuZXcgMCAwIDQyLjc4IDY4LjI1OyIgeG1sOnNwYWNlPSJwcmVzZXJ2ZSI+JiN4YTs8c29kaXBvZGk6bmFtZWR2aWV3IGJvcmRlcmNvbG9yPSIjNjY2NjY2IiBib3JkZXJvcGFjaXR5PSIxIiBmaXQtbWFyZ2luLWJvdHRvbT0iMCIgZml0LW1hcmdpbi1sZWZ0PSIwIiBmaXQtbWFyZ2luLXJpZ2h0PSIwIiBmaXQtbWFyZ2luLXRvcD0iMCIgZ3JpZHRvbGVyYW5jZT0iMTAiIGd1aWRldG9sZXJhbmNlPSIxMCIgaWQ9Im5hbWVkdmlldzE2OTczNSIgaW5rc2NhcGU6Y3VycmVudC1sYXllcj0ic3ZnMTY5NzMzIiBpbmtzY2FwZTpjeD0iMjguNTE2OTkyIiBpbmtzY2FwZTpjeT0iNDUuNDk5OTgyIiBpbmtzY2FwZTpwYWdlb3BhY2l0eT0iMCIgaW5rc2NhcGU6cGFnZXNoYWRvdz0iMiIgaW5rc2NhcGU6d2luZG93LWhlaWdodD0iMTAxNyIgaW5rc2NhcGU6d2luZG93LW1heGltaXplZD0iMSIgaW5rc2NhcGU6d2luZG93LXdpZHRoPSIxOTIwIiBpbmtzY2FwZTp3aW5kb3cteD0iLTgiIGlua3NjYXBlOndpbmRvdy15PSItOCIgaW5rc2NhcGU6em9vbT0iOS41Mjc0NjkzIiBvYmplY3R0b2xlcmFuY2U9IjEwIiBwYWdlY29sb3I9IiNmZmZmZmYiIHNob3dncmlkPSJmYWxzZSI+JiN4YTsJPC9zb2RpcG9kaTpuYW1lZHZpZXc+JiN4YTs8ZyBpZD0iZzE2OTczMSIgdHJhbnNmb3JtPSJ0cmFuc2xhdGUoMCwtMC4wMDE3KSI+JiN4YTsJPHRpdGxlIGlkPSJ0aXRsZTE2OTMxMSI+UGFnZS0xPC90aXRsZT4mI3hhOwk8ZyBpZD0iZ3JvdXA4NDg5LTEiPiYjeGE7CQk8dGl0bGUgaWQ9InRpdGxlMTY5MzEzIj5Pbi1wcmVtaXNlczwvdGl0bGU+JiN4YTsJCTxnIGlkPSJzaGFwZTg0OTAtMiI+JiN4YTsJCQk8dGl0bGUgaWQ9InRpdGxlMTY5MzE1Ij5TaGVldC44NDkwPC90aXRsZT4mI3hhOwkJCTxwYXRoIGlkPSJwYXRoMTY5MzE3IiBpbmtzY2FwZTpjb25uZWN0b3ItY3VydmF0dXJlPSIwIiBzdHlsZT0iZmlsbDojODA4MDgwOyIgZD0iTTIxLjM2LDI5Ljk0TDAsMTYuMDRsMC4wMiwzOC4yOGwyMS4zLDEzLjkzICAgICBMMjEuMzYsMjkuOTR6Ii8+JiN4YTsJCTwvZz4mI3hhOwkJPGcgaWQ9InNoYXBlODQ5MS00Ij4mI3hhOwkJCTx0aXRsZSBpZD0idGl0bGUxNjkzMjAiPlNoZWV0Ljg0OTE8L3RpdGxlPiYjeGE7CQkJPHBhdGggaWQ9InBhdGgxNjkzMjIiIGlua3NjYXBlOmNvbm5lY3Rvci1jdXJ2YXR1cmU9IjAiIHN0eWxlPSJmaWxsOiMzRjU3NjU7IiBkPSJNMjEuMzYsMjcuODFMMCwxMy44OGwwLjAyLDQwLjQ0bDIxLjMsMTMuOTMgICAgIEwyMS4zNiwyNy44MXoiLz4mI3hhOwkJPC9nPiYjeGE7CQk8ZyBpZD0ic2hhcGU4NDkyLTYiIHRyYW5zZm9ybT0idHJhbnNsYXRlKDIxLjMxNzEpIj4mI3hhOwkJCTx0aXRsZSBpZD0idGl0bGUxNjkzMjUiPlNoZWV0Ljg0OTI8L3RpdGxlPiYjeGE7CQkJPHBhdGggaWQ9InBhdGgxNjkzMjciIGlua3NjYXBlOmNvbm5lY3Rvci1jdXJ2YXR1cmU9IjAiIHN0eWxlPSJmaWxsOiNEOURBRDg7IiBkPSJNMCw2OC4yNWwyMS4zOS0xMy45M2wwLjA3LTM4LjI4TDAuMDUsMjkuOTQgICAgIEwwLDY4LjI1eiIvPiYjeGE7CQk8L2c+JiN4YTsJCTxnIGlkPSJzaGFwZTg0OTMtOCIgdHJhbnNmb3JtPSJ0cmFuc2xhdGUoMjEuMzE3MSkiPiYjeGE7CQkJPHRpdGxlIGlkPSJ0aXRsZTE2OTMzMCI+U2hlZXQuODQ5MzwvdGl0bGU+JiN4YTsJCQk8cGF0aCBpZD0icGF0aDE2OTMzMiIgaW5rc2NhcGU6Y29ubmVjdG9yLWN1cnZhdHVyZT0iMCIgc3R5bGU9ImZpbGw6IzNGNTc2NTsiIGQ9Ik0wLDY4LjI1bDIxLjM5LTEzLjkzbDAuMDctNDAuNDRMMC4wNSwyNy44MSAgICAgTDAsNjguMjV6Ii8+JiN4YTsJCTwvZz4mI3hhOwkJPGcgaWQ9InNoYXBlODQ5NC0xMCIgdHJhbnNmb3JtPSJ0cmFuc2xhdGUoMi4zNzkwMywtNDIuMTkxMykiPiYjeGE7CQkJPHRpdGxlIGlkPSJ0aXRsZTE2OTMzNSI+U2hlZXQuODQ5NDwvdGl0bGU+JiN4YTsJCQk8cGF0aCBpZD0icGF0aDE2OTMzNyIgaW5rc2NhcGU6Y29ubmVjdG9yLWN1cnZhdHVyZT0iMCIgc3R5bGU9ImZpbGw6IzNGNTc2NTsiIGQ9Ik0xOS4wMSw0My41N0wwLDU1Ljg4bDE5LjAxLDEyLjM3bDE4Ljk2LTEyLjM3ICAgICBMMTkuMDEsNDMuNTd6Ii8+JiN4YTsJCTwvZz4mI3hhOwkJPGcgaWQ9InNoYXBlODQ5NS0xMiIgdHJhbnNmb3JtPSJ0cmFuc2xhdGUoMCwtNDAuNDM4MykiPiYjeGE7CQkJPHRpdGxlIGlkPSJ0aXRsZTE2OTM0MCI+U2hlZXQuODQ5NTwvdGl0bGU+JiN4YTsJCQk8cGF0aCBpZD0icGF0aDE2OTM0MiIgaW5rc2NhcGU6Y29ubmVjdG9yLWN1cnZhdHVyZT0iMCIgc3R5bGU9ImZpbGw6I0VGRURFQzsiIGQ9Ik0yMS4zOSw0MC40NEwwLDU0LjMybDIxLjM5LDEzLjkzbDIxLjM5LTEzLjkzICAgICBMMjEuMzksNDAuNDR6IE0yLjM4LDU0LjEzbDE5LjAxLTEyLjMybDE4Ljk2LDEyLjMyTDIxLjM5LDY2LjVMMi4zOCw1NC4xM3oiLz4mI3hhOwkJPC9nPiYjeGE7CQk8ZyBpZD0ic2hhcGU4NDk2LTE0IiB0cmFuc2Zvcm09InRyYW5zbGF0ZSgxLjcxOTUsLTM3LjA3NDQpIj4mI3hhOwkJCTx0aXRsZSBpZD0idGl0bGUxNjkzNDUiPlNoZWV0Ljg0OTY8L3RpdGxlPiYjeGE7CQkJPHBhdGggaWQ9InBhdGgxNjkzNDciIGlua3NjYXBlOmNvbm5lY3Rvci1jdXJ2YXR1cmU9IjAiIHN0eWxlPSJmaWxsOiNGRkZGRkY7IiBkPSJNMC41Nyw2NS42MnYtNC42NEwwLDYwLjYybDAuMDUsNS40bDMuMzQsMi4yMyAgICAgdi0wLjgxTDAuNTcsNjUuNjJ6Ii8+JiN4YTsJCTwvZz4mI3hhOwkJPGcgaWQ9InNoYXBlODQ5Ny0xNiIgdHJhbnNmb3JtPSJ0cmFuc2xhdGUoMi4yODQ4MSwtMzcuODc5OCkiPiYjeGE7CQkJPHRpdGxlIGlkPSJ0aXRsZTE2OTM1MCI+U2hlZXQuODQ5NzwvdGl0bGU+JiN4YTsJCQk8cGF0aCBpZD0icGF0aDE2OTM1MiIgaW5rc2NhcGU6Y29ubmVjdG9yLWN1cnZhdHVyZT0iMCIgc3R5bGU9ImZpbGw6IzUwOURCRjsiIGQ9Ik0yLjgzLDY4LjI1di00LjY0TDAsNjEuNzh2NC42NUwyLjgzLDY4LjI1eiIvPiYjeGE7CQk8L2c+JiN4YTsJCTxnIGlkPSJzaGFwZTg0OTgtMTgiIHRyYW5zZm9ybT0idHJhbnNsYXRlKDEuNzE5NSwtMjkuMzA0MSkiPiYjeGE7CQkJPHRpdGxlIGlkPSJ0aXRsZTE2OTM1NSI+U2hlZXQuODQ5ODwvdGl0bGU+JiN4YTsJCQk8cGF0aCBpZD0icGF0aDE2OTM1NyIgaW5rc2NhcGU6Y29ubmVjdG9yLWN1cnZhdHVyZT0iMCIgc3R5bGU9ImZpbGw6I0ZGRkZGRjsiIGQ9Ik0wLjU3LDY1LjZ2LTQuNjJMMCw2MC42MmwwLjA1LDUuNGwzLjM0LDIuMjMgICAgIHYtMC44MUwwLjU3LDY1LjZ6Ii8+JiN4YTsJCTwvZz4mI3hhOwkJPGcgaWQ9InNoYXBlODQ5OS0yMCIgdHJhbnNmb3JtPSJ0cmFuc2xhdGUoMi4yODQ4MSwtMzAuMTA5NikiPiYjeGE7CQkJPHRpdGxlIGlkPSJ0aXRsZTE2OTM2MCI+U2hlZXQuODQ5OTwvdGl0bGU+JiN4YTsJCQk8cGF0aCBpZD0icGF0aDE2OTM2MiIgaW5rc2NhcGU6Y29ubmVjdG9yLWN1cnZhdHVyZT0iMCIgc3R5bGU9ImZpbGw6IzUwOURCRjsiIGQ9Ik0yLjgzLDY4LjI1di00LjY0TDAsNjEuNzh2NC42MkwyLjgzLDY4LjI1eiIvPiYjeGE7CQk8L2c+JiN4YTsJCTxnIGlkPSJzaGFwZTg1MDAtMjIiIHRyYW5zZm9ybT0idHJhbnNsYXRlKDEuNzE5NSwtMjEuNTgxMykiPiYjeGE7CQkJPHRpdGxlIGlkPSJ0aXRsZTE2OTM2NSI+U2hlZXQuODUwMDwvdGl0bGU+JiN4YTsJCQk8cGF0aCBpZD0icGF0aDE2OTM2NyIgaW5rc2NhcGU6Y29ubmVjdG9yLWN1cnZhdHVyZT0iMCIgc3R5bGU9ImZpbGw6I0ZGRkZGRjsiIGQ9Ik0wLjU3LDY1LjY0di00LjYyTDAsNjAuNjVsMC4wNSw1LjQybDMuMzQsMi4xOCAgICAgdi0wLjc4TDAuNTcsNjUuNjR6Ii8+JiN4YTsJCTwvZz4mI3hhOwkJPGcgaWQ9InNoYXBlODUwMS0yNCIgdHJhbnNmb3JtPSJ0cmFuc2xhdGUoMi4yODQ4MSwtMjIuMzYzMSkiPiYjeGE7CQkJPHRpdGxlIGlkPSJ0aXRsZTE2OTM3MCI+U2hlZXQuODUwMTwvdGl0bGU+JiN4YTsJCQk8cGF0aCBpZD0icGF0aDE2OTM3MiIgaW5rc2NhcGU6Y29ubmVjdG9yLWN1cnZhdHVyZT0iMCIgc3R5bGU9ImZpbGw6IzUwOURCRjsiIGQ9Ik0yLjgzLDY4LjI1di00LjYyTDAsNjEuODF2NC42MkwyLjgzLDY4LjI1eiIvPiYjeGE7CQk8L2c+JiN4YTsJCTxnIGlkPSJzaGFwZTg1MDItMjYiIHRyYW5zZm9ybT0idHJhbnNsYXRlKDEuNzE5NSwtMTMuODExMSkiPiYjeGE7CQkJPHRpdGxlIGlkPSJ0aXRsZTE2OTM3NSI+U2hlZXQuODUwMjwvdGl0bGU+JiN4YTsJCQk8cGF0aCBpZD0icGF0aDE2OTM3NyIgaW5rc2NhcGU6Y29ubmVjdG9yLWN1cnZhdHVyZT0iMCIgc3R5bGU9ImZpbGw6I0ZGRkZGRjsiIGQ9Ik0wLjU3LDY1LjY0VjYxTDAsNjAuNjVsMC4wNSw1LjQybDMuMzQsMi4xOCAgICAgdi0wLjc4TDAuNTcsNjUuNjR6Ii8+JiN4YTsJCTwvZz4mI3hhOwkJPGcgaWQ9InNoYXBlODUwMy0yOCIgdHJhbnNmb3JtPSJ0cmFuc2xhdGUoMi4yODQ4MSwtMTQuNTkyOCkiPiYjeGE7CQkJPHRpdGxlIGlkPSJ0aXRsZTE2OTM4MCI+U2hlZXQuODUwMzwvdGl0bGU+JiN4YTsJCQk8cGF0aCBpZD0icGF0aDE2OTM4MiIgaW5rc2NhcGU6Y29ubmVjdG9yLWN1cnZhdHVyZT0iMCIgc3R5bGU9ImZpbGw6IzUwOURCRjsiIGQ9Ik0yLjgzLDY4LjI1di00LjYyTDAsNjEuNzh2NC42NUwyLjgzLDY4LjI1eiIvPiYjeGE7CQk8L2c+JiN4YTsJCTxnIGlkPSJzaGFwZTg1MDQtMzAiIHRyYW5zZm9ybT0idHJhbnNsYXRlKDYuMzEyNjgsLTM0LjI3OSkiPiYjeGE7CQkJPHRpdGxlIGlkPSJ0aXRsZTE2OTM4NSI+U2hlZXQuODUwNDwvdGl0bGU+JiN4YTsJCQk8cGF0aCBpZD0icGF0aDE2OTM4NyIgaW5rc2NhcGU6Y29ubmVjdG9yLWN1cnZhdHVyZT0iMCIgc3R5bGU9ImZpbGw6I0ZGRkZGRjsiIGQ9Ik0wLjU3LDY1LjY0VjYxTDAsNjAuNjVsMC4wMiw1LjRsMy4zNywyLjIgICAgIHYtMC43OEwwLjU3LDY1LjY0eiIvPiYjeGE7CQk8L2c+JiN4YTsJCTxnIGlkPSJzaGFwZTg1MDUtMzIiIHRyYW5zZm9ybT0idHJhbnNsYXRlKDYuODc3OTksLTM1LjA2MDcpIj4mI3hhOwkJCTx0aXRsZSBpZD0idGl0bGUxNjkzOTAiPlNoZWV0Ljg1MDU8L3RpdGxlPiYjeGE7CQkJPHBhdGggaWQ9InBhdGgxNjkzOTIiIGlua3NjYXBlOmNvbm5lY3Rvci1jdXJ2YXR1cmU9IjAiIHN0eWxlPSJmaWxsOiM1MDlEQkY7IiBkPSJNMi44Myw2OC4yNXYtNC42NEwwLDYxLjc4djQuNjVMMi44Myw2OC4yNXoiLz4mI3hhOwkJPC9nPiYjeGE7CQk8ZyBpZD0ic2hhcGU4NTA2LTM0IiB0cmFuc2Zvcm09InRyYW5zbGF0ZSg2LjMxMjY4LC0yNi41MDg4KSI+JiN4YTsJCQk8dGl0bGUgaWQ9InRpdGxlMTY5Mzk1Ij5TaGVldC44NTA2PC90aXRsZT4mI3hhOwkJCTxwYXRoIGlkPSJwYXRoMTY5Mzk3IiBpbmtzY2FwZTpjb25uZWN0b3ItY3VydmF0dXJlPSIwIiBzdHlsZT0iZmlsbDojRkZGRkZGOyIgZD0iTTAuNTcsNjUuNlY2MUwwLDYwLjY1bDAuMDIsNS40bDMuMzcsMi4ydi0wLjc4ICAgICBMMC41Nyw2NS42eiIvPiYjeGE7CQk8L2c+JiN4YTsJCTxnIGlkPSJzaGFwZTg1MDctMzYiIHRyYW5zZm9ybT0idHJhbnNsYXRlKDYuODc3OTksLTI3LjI5MDUpIj4mI3hhOwkJCTx0aXRsZSBpZD0idGl0bGUxNjk0MDAiPlNoZWV0Ljg1MDc8L3RpdGxlPiYjeGE7CQkJPHBhdGggaWQ9InBhdGgxNjk0MDIiIGlua3NjYXBlOmNvbm5lY3Rvci1jdXJ2YXR1cmU9IjAiIHN0eWxlPSJmaWxsOiM1MDlEQkY7IiBkPSJNMi44Myw2OC4yNXYtNC42NEwwLDYxLjc4djQuNkwyLjgzLDY4LjI1eiIvPiYjeGE7CQk8L2c+JiN4YTsJCTxnIGlkPSJzaGFwZTg1MDgtMzgiIHRyYW5zZm9ybT0idHJhbnNsYXRlKDYuMzEyNjgsLTE4Ljc2MjIpIj4mI3hhOwkJCTx0aXRsZSBpZD0idGl0bGUxNjk0MDUiPlNoZWV0Ljg1MDg8L3RpdGxlPiYjeGE7CQkJPHBhdGggaWQ9InBhdGgxNjk0MDciIGlua3NjYXBlOmNvbm5lY3Rvci1jdXJ2YXR1cmU9IjAiIHN0eWxlPSJmaWxsOiNGRkZGRkY7IiBkPSJNMC41Nyw2NS42MnYtNC42TDAsNjAuNjVsMC4wMiw1LjQybDMuMzcsMi4xOCAgICAgdi0wLjc4TDAuNTcsNjUuNjJ6Ii8+JiN4YTsJCTwvZz4mI3hhOwkJPGcgaWQ9InNoYXBlODUwOS00MCIgdHJhbnNmb3JtPSJ0cmFuc2xhdGUoNi44Nzc5OSwtMTkuNTQ0KSI+JiN4YTsJCQk8dGl0bGUgaWQ9InRpdGxlMTY5NDEwIj5TaGVldC44NTA5PC90aXRsZT4mI3hhOwkJCTxwYXRoIGlkPSJwYXRoMTY5NDEyIiBpbmtzY2FwZTpjb25uZWN0b3ItY3VydmF0dXJlPSIwIiBzdHlsZT0iZmlsbDojMDBBRUVGOyIgZD0iTTIuODMsNjguMjV2LTQuNjJMMCw2MS44MXY0LjU5TDIuODMsNjguMjV6Ii8+JiN4YTsJCTwvZz4mI3hhOwkJPGcgaWQ9InNoYXBlODUxMC00MiIgdHJhbnNmb3JtPSJ0cmFuc2xhdGUoNi4zMTI2OCwtMTAuOTkyKSI+JiN4YTsJCQk8dGl0bGUgaWQ9InRpdGxlMTY5NDE1Ij5TaGVldC44NTEwPC90aXRsZT4mI3hhOwkJCTxwYXRoIGlkPSJwYXRoMTY5NDE3IiBpbmtzY2FwZTpjb25uZWN0b3ItY3VydmF0dXJlPSIwIiBzdHlsZT0iZmlsbDojRkZGRkZGOyIgZD0iTTAuNTcsNjUuNjJ2LTQuNjRMMCw2MC42NWwwLjAyLDUuNDJsMy4zNywyLjE4ICAgICB2LTAuNzhMMC41Nyw2NS42MnoiLz4mI3hhOwkJPC9nPiYjeGE7CQk8ZyBpZD0ic2hhcGU4NTExLTQ0IiB0cmFuc2Zvcm09InRyYW5zbGF0ZSg2Ljg3Nzk5LC0xMS43NzM4KSI+JiN4YTsJCQk8dGl0bGUgaWQ9InRpdGxlMTY5NDIwIj5TaGVldC44NTExPC90aXRsZT4mI3hhOwkJCTxwYXRoIGlkPSJwYXRoMTY5NDIyIiBpbmtzY2FwZTpjb25uZWN0b3ItY3VydmF0dXJlPSIwIiBzdHlsZT0iZmlsbDojNTA5REJGOyIgZD0iTTIuODMsNjguMjV2LTQuNjJMMCw2MS43NnY0LjY0TDIuODMsNjguMjV6Ii8+JiN4YTsJCTwvZz4mI3hhOwkJPGcgaWQ9InNoYXBlODUxMi00NiIgdHJhbnNmb3JtPSJ0cmFuc2xhdGUoMTAuOTI5NCwtMzEuNDU5OSkiPiYjeGE7CQkJPHRpdGxlIGlkPSJ0aXRsZTE2OTQyNSI+U2hlZXQuODUxMjwvdGl0bGU+JiN4YTsJCQk8cGF0aCBpZD0icGF0aDE2OTQyNyIgaW5rc2NhcGU6Y29ubmVjdG9yLWN1cnZhdHVyZT0iMCIgc3R5bGU9ImZpbGw6I0ZGRkZGRjsiIGQ9Ik0wLjU0LDY1LjZ2LTQuNjJMMCw2MC42NXY1LjRsMy4zNywyLjJ2LTAuNzggICAgIEwwLjU0LDY1LjZ6Ii8+JiN4YTsJCTwvZz4mI3hhOwkJPGcgaWQ9InNoYXBlODUxMy00OCIgdHJhbnNmb3JtPSJ0cmFuc2xhdGUoMTEuNDcxMiwtMzIuMjQxNykiPiYjeGE7CQkJPHRpdGxlIGlkPSJ0aXRsZTE2OTQzMCI+U2hlZXQuODUxMzwvdGl0bGU+JiN4YTsJCQk8cGF0aCBpZD0icGF0aDE2OTQzMiIgaW5rc2NhcGU6Y29ubmVjdG9yLWN1cnZhdHVyZT0iMCIgc3R5bGU9ImZpbGw6IzUwOURCRjsiIGQ9Ik0yLjgzLDY4LjI1di00LjY0TDAsNjEuNzZ2NC42MkwyLjgzLDY4LjI1eiIvPiYjeGE7CQk8L2c+JiN4YTsJCTxnIGlkPSJzaGFwZTg1MTQtNTAiIHRyYW5zZm9ybT0idHJhbnNsYXRlKDEwLjkyOTQsLTIzLjY4OTcpIj4mI3hhOwkJCTx0aXRsZSBpZD0idGl0bGUxNjk0MzUiPlNoZWV0Ljg1MTQ8L3RpdGxlPiYjeGE7CQkJPHBhdGggaWQ9InBhdGgxNjk0MzciIGlua3NjYXBlOmNvbm5lY3Rvci1jdXJ2YXR1cmU9IjAiIHN0eWxlPSJmaWxsOiNGRkZGRkY7IiBkPSJNMC41NCw2NS42di00LjYyTDAsNjAuNjV2NS40bDMuMzcsMi4ydi0wLjgzICAgICBMMC41NCw2NS42eiIvPiYjeGE7CQk8L2c+JiN4YTsJCTxnIGlkPSJzaGFwZTg1MTUtNTIiIHRyYW5zZm9ybT0idHJhbnNsYXRlKDExLjQ3MTIsLTI0LjUxODgpIj4mI3hhOwkJCTx0aXRsZSBpZD0idGl0bGUxNjk0NDAiPlNoZWV0Ljg1MTU8L3RpdGxlPiYjeGE7CQkJPHBhdGggaWQ9InBhdGgxNjk0NDIiIGlua3NjYXBlOmNvbm5lY3Rvci1jdXJ2YXR1cmU9IjAiIHN0eWxlPSJmaWxsOiM1MDlEQkY7IiBkPSJNMi44Myw2OC4yNXYtNC42TDAsNjEuODF2NC42MkwyLjgzLDY4LjI1eiIvPiYjeGE7CQk8L2c+JiN4YTsJCTxnIGlkPSJzaGFwZTg1MTYtNTQiIHRyYW5zZm9ybT0idHJhbnNsYXRlKDEwLjkyOTQsLTE1Ljk0MzIpIj4mI3hhOwkJCTx0aXRsZSBpZD0idGl0bGUxNjk0NDUiPlNoZWV0Ljg1MTY8L3RpdGxlPiYjeGE7CQkJPHBhdGggaWQ9InBhdGgxNjk0NDciIGlua3NjYXBlOmNvbm5lY3Rvci1jdXJ2YXR1cmU9IjAiIHN0eWxlPSJmaWxsOiNGRkZGRkY7IiBkPSJNMC41NCw2NS42MlY2MUwwLDYwLjYydjUuNDVsMy4zNywyLjE4di0wLjgxICAgICBMMC41NCw2NS42MnoiLz4mI3hhOwkJPC9nPiYjeGE7CQk8ZyBpZD0ic2hhcGU4NTE3LTU2IiB0cmFuc2Zvcm09InRyYW5zbGF0ZSgxMS40NzEyLC0xNi43NDg2KSI+JiN4YTsJCQk8dGl0bGUgaWQ9InRpdGxlMTY5NDUwIj5TaGVldC44NTE3PC90aXRsZT4mI3hhOwkJCTxwYXRoIGlkPSJwYXRoMTY5NDUyIiBpbmtzY2FwZTpjb25uZWN0b3ItY3VydmF0dXJlPSIwIiBzdHlsZT0iZmlsbDojNTA5REJGOyIgZD0iTTIuODMsNjguMjV2LTQuNkwwLDYxLjgxdjQuNjJMMi44Myw2OC4yNXoiLz4mI3hhOwkJPC9nPiYjeGE7CQk8ZyBpZD0ic2hhcGU4NTE4LTU4IiB0cmFuc2Zvcm09InRyYW5zbGF0ZSgxMC45Mjk0LC04LjE3Mjk0KSI+JiN4YTsJCQk8dGl0bGUgaWQ9InRpdGxlMTY5NDU1Ij5TaGVldC44NTE4PC90aXRsZT4mI3hhOwkJCTxwYXRoIGlkPSJwYXRoMTY5NDU3IiBpbmtzY2FwZTpjb25uZWN0b3ItY3VydmF0dXJlPSIwIiBzdHlsZT0iZmlsbDojRkZGRkZGOyIgZD0iTTAuNTQsNjUuNjJ2LTQuNjRMMCw2MC42MnY1LjQ1bDMuMzcsMi4xOCAgICAgdi0wLjgxTDAuNTQsNjUuNjJ6Ii8+JiN4YTsJCTwvZz4mI3hhOwkJPGcgaWQ9InNoYXBlODUxOS02MCIgdHJhbnNmb3JtPSJ0cmFuc2xhdGUoMTEuNDcxMiwtOC45NzgzOSkiPiYjeGE7CQkJPHRpdGxlIGlkPSJ0aXRsZTE2OTQ2MCI+U2hlZXQuODUxOTwvdGl0bGU+JiN4YTsJCQk8cGF0aCBpZD0icGF0aDE2OTQ2MiIgaW5rc2NhcGU6Y29ubmVjdG9yLWN1cnZhdHVyZT0iMCIgc3R5bGU9ImZpbGw6IzUwOURCRjsiIGQ9Ik0yLjgzLDY4LjI1di00LjZMMCw2MS43OHY0LjY1TDIuODMsNjguMjV6Ii8+JiN4YTsJCTwvZz4mI3hhOwkJPGcgaWQ9InNoYXBlODUyMC02MiIgdHJhbnNmb3JtPSJ0cmFuc2xhdGUoMTUuNTIyNiwtMjguNjQwOCkiPiYjeGE7CQkJPHRpdGxlIGlkPSJ0aXRsZTE2OTQ2NSI+U2hlZXQuODUyMDwvdGl0bGU+JiN4YTsJCQk8cGF0aCBpZD0icGF0aDE2OTQ2NyIgaW5rc2NhcGU6Y29ubmVjdG9yLWN1cnZhdHVyZT0iMCIgc3R5bGU9ImZpbGw6I0ZGRkZGRjsiIGQ9Ik0wLjUyLDY1LjZ2LTQuNjJMMCw2MC42MnY1LjRsMy4zNCwyLjIzdi0wLjgxICAgICBMMC41Miw2NS42eiIvPiYjeGE7CQk8L2c+JiN4YTsJCTxnIGlkPSJzaGFwZTg1MjEtNjQiIHRyYW5zZm9ybT0idHJhbnNsYXRlKDE2LjA0MDgsLTI5LjQ0NjMpIj4mI3hhOwkJCTx0aXRsZSBpZD0idGl0bGUxNjk0NzAiPlNoZWV0Ljg1MjE8L3RpdGxlPiYjeGE7CQkJPHBhdGggaWQ9InBhdGgxNjk0NzIiIGlua3NjYXBlOmNvbm5lY3Rvci1jdXJ2YXR1cmU9IjAiIHN0eWxlPSJmaWxsOiM1MDlEQkY7IiBkPSJNMi44Myw2OC4yNXYtNC42NEwwLDYxLjc4djQuNjJMMi44Myw2OC4yNXoiLz4mI3hhOwkJPC9nPiYjeGE7CQk8ZyBpZD0ic2hhcGU4NTIyLTY2IiB0cmFuc2Zvcm09InRyYW5zbGF0ZSgxNS41MjI2LC0yMC44NzA2KSI+JiN4YTsJCQk8dGl0bGUgaWQ9InRpdGxlMTY5NDc1Ij5TaGVldC44NTIyPC90aXRsZT4mI3hhOwkJCTxwYXRoIGlkPSJwYXRoMTY5NDc3IiBpbmtzY2FwZTpjb25uZWN0b3ItY3VydmF0dXJlPSIwIiBzdHlsZT0iZmlsbDojRkZGRkZGOyIgZD0iTTAuNTIsNjUuNnYtNC42MkwwLDYwLjZ2NS40MmwzLjM0LDIuMjN2LTAuODMgICAgIEwwLjUyLDY1LjZ6Ii8+JiN4YTsJCTwvZz4mI3hhOwkJPGcgaWQ9InNoYXBlODUyMy02OCIgdHJhbnNmb3JtPSJ0cmFuc2xhdGUoMTYuMDQwOCwtMjEuNjk5OCkiPiYjeGE7CQkJPHRpdGxlIGlkPSJ0aXRsZTE2OTQ4MCI+U2hlZXQuODUyMzwvdGl0bGU+JiN4YTsJCQk8cGF0aCBpZD0icGF0aDE2OTQ4MiIgaW5rc2NhcGU6Y29ubmVjdG9yLWN1cnZhdHVyZT0iMCIgc3R5bGU9ImZpbGw6IzUwOURCRjsiIGQ9Ik0yLjgzLDY4LjI1di00LjYyTDAsNjEuODF2NC42MkwyLjgzLDY4LjI1eiIvPiYjeGE7CQk8L2c+JiN4YTsJCTxnIGlkPSJzaGFwZTg1MjQtNzAiIHRyYW5zZm9ybT0idHJhbnNsYXRlKDE1LjUyMjYsLTEzLjE0NzgpIj4mI3hhOwkJCTx0aXRsZSBpZD0idGl0bGUxNjk0ODUiPlNoZWV0Ljg1MjQ8L3RpdGxlPiYjeGE7CQkJPHBhdGggaWQ9InBhdGgxNjk0ODciIGlua3NjYXBlOmNvbm5lY3Rvci1jdXJ2YXR1cmU9IjAiIHN0eWxlPSJmaWxsOiNGRkZGRkY7IiBkPSJNMC41Miw2NS42NHYtNC42MkwwLDYwLjY1djUuNDJsMy4zNCwyLjE4ICAgICB2LTAuNzhMMC41Miw2NS42NHoiLz4mI3hhOwkJPC9nPiYjeGE7CQk8ZyBpZD0ic2hhcGU4NTI1LTcyIiB0cmFuc2Zvcm09InRyYW5zbGF0ZSgxNi4wNDA4LC0xMy45Mjk1KSI+JiN4YTsJCQk8dGl0bGUgaWQ9InRpdGxlMTY5NDkwIj5TaGVldC44NTI1PC90aXRsZT4mI3hhOwkJCTxwYXRoIGlkPSJwYXRoMTY5NDkyIiBpbmtzY2FwZTpjb25uZWN0b3ItY3VydmF0dXJlPSIwIiBzdHlsZT0iZmlsbDojNTA5REJGOyIgZD0iTTIuODMsNjguMjV2LTQuNjJMMCw2MS44MXY0LjYyTDIuODMsNjguMjV6Ii8+JiN4YTsJCTwvZz4mI3hhOwkJPGcgaWQ9InNoYXBlODUyNi03NCIgdHJhbnNmb3JtPSJ0cmFuc2xhdGUoMTUuNTIyNiwtNS4zNzc1NikiPiYjeGE7CQkJPHRpdGxlIGlkPSJ0aXRsZTE2OTQ5NSI+U2hlZXQuODUyNjwvdGl0bGU+JiN4YTsJCQk8cGF0aCBpZD0icGF0aDE2OTQ5NyIgaW5rc2NhcGU6Y29ubmVjdG9yLWN1cnZhdHVyZT0iMCIgc3R5bGU9ImZpbGw6I0ZGRkZGRjsiIGQ9Ik0wLjUyLDY1LjY0VjYxTDAsNjAuNjV2NS40MmwzLjM0LDIuMTh2LTAuNzggICAgIEwwLjUyLDY1LjY0eiIvPiYjeGE7CQk8L2c+JiN4YTsJCTxnIGlkPSJzaGFwZTg1MjctNzYiIHRyYW5zZm9ybT0idHJhbnNsYXRlKDE2LjA0MDgsLTYuMTU5MzIpIj4mI3hhOwkJCTx0aXRsZSBpZD0idGl0bGUxNjk1MDAiPlNoZWV0Ljg1Mjc8L3RpdGxlPiYjeGE7CQkJPHBhdGggaWQ9InBhdGgxNjk1MDIiIGlua3NjYXBlOmNvbm5lY3Rvci1jdXJ2YXR1cmU9IjAiIHN0eWxlPSJmaWxsOiM1MDlEQkY7IiBkPSJNMi44Myw2OC4yNXYtNC42MkwwLDYxLjc4djQuNjVMMi44Myw2OC4yNXoiLz4mI3hhOwkJPC9nPiYjeGE7CQk8ZyBpZD0ic2hhcGU4NTI4LTc4IiB0cmFuc2Zvcm09InRyYW5zbGF0ZSgzNy4xNDU5LC0zNy4wNzQ0KSI+JiN4YTsJCQk8dGl0bGUgaWQ9InRpdGxlMTY5NTA1Ij5TaGVldC44NTI4PC90aXRsZT4mI3hhOwkJCTxwYXRoIGlkPSJwYXRoMTY5NTA3IiBpbmtzY2FwZTpjb25uZWN0b3ItY3VydmF0dXJlPSIwIiBzdHlsZT0iZmlsbDojRTRFNEU0OyIgZD0iTTIuODcsNjUuNjJ2LTQuNjRsMC41Mi0wLjM2djUuNEwwLDY4LjI1di0wLjgxICAgICBMMi44Nyw2NS42MnoiLz4mI3hhOwkJPC9nPiYjeGE7CQk8ZyBpZD0ic2hhcGU4NTI5LTgwIiB0cmFuc2Zvcm09InRyYW5zbGF0ZSgzNy4xNDU5LC0yOS4zMDQxKSI+JiN4YTsJCQk8dGl0bGUgaWQ9InRpdGxlMTY5NTEwIj5TaGVldC44NTI5PC90aXRsZT4mI3hhOwkJCTxwYXRoIGlkPSJwYXRoMTY5NTEyIiBpbmtzY2FwZTpjb25uZWN0b3ItY3VydmF0dXJlPSIwIiBzdHlsZT0iZmlsbDojRTRFNEU0OyIgZD0iTTIuODcsNjUuNnYtNC42MmwwLjUyLTAuMzZ2NS40TDAsNjguMjV2LTAuODEgICAgIEwyLjg3LDY1LjZ6Ii8+JiN4YTsJCTwvZz4mI3hhOwkJPGcgaWQ9InNoYXBlODUzMC04MiIgdHJhbnNmb3JtPSJ0cmFuc2xhdGUoMzcuMTQ1OSwtMjEuNTgxMykiPiYjeGE7CQkJPHRpdGxlIGlkPSJ0aXRsZTE2OTUxNSI+U2hlZXQuODUzMDwvdGl0bGU+JiN4YTsJCQk8cGF0aCBpZD0icGF0aDE2OTUxNyIgaW5rc2NhcGU6Y29ubmVjdG9yLWN1cnZhdHVyZT0iMCIgc3R5bGU9ImZpbGw6I0U0RTRFNDsiIGQ9Ik0yLjg3LDY1LjY0di00LjYybDAuNTItMC4zN3Y1LjQyTDAsNjguMjUgICAgIHYtMC43OEwyLjg3LDY1LjY0eiIvPiYjeGE7CQk8L2c+JiN4YTsJCTxnIGlkPSJzaGFwZTg1MzEtODQiIHRyYW5zZm9ybT0idHJhbnNsYXRlKDM3LjE0NTksLTEzLjgxMTEpIj4mI3hhOwkJCTx0aXRsZSBpZD0idGl0bGUxNjk1MjAiPlNoZWV0Ljg1MzE8L3RpdGxlPiYjeGE7CQkJPHBhdGggaWQ9InBhdGgxNjk1MjIiIGlua3NjYXBlOmNvbm5lY3Rvci1jdXJ2YXR1cmU9IjAiIHN0eWxlPSJmaWxsOiNFNEU0RTQ7IiBkPSJNMi44Nyw2NS42NFY2MWwwLjUyLTAuMzV2NS40MkwwLDY4LjI1di0wLjc4ICAgICBMMi44Nyw2NS42NHoiLz4mI3hhOwkJPC9nPiYjeGE7CQk8ZyBpZD0ic2hhcGU4NTMyLTg2IiB0cmFuc2Zvcm09InRyYW5zbGF0ZSgzMi41NzYyLC0zNC4yNzkpIj4mI3hhOwkJCTx0aXRsZSBpZD0idGl0bGUxNjk1MjUiPlNoZWV0Ljg1MzI8L3RpdGxlPiYjeGE7CQkJPHBhdGggaWQ9InBhdGgxNjk1MjciIGlua3NjYXBlOmNvbm5lY3Rvci1jdXJ2YXR1cmU9IjAiIHN0eWxlPSJmaWxsOiNFNEU0RTQ7IiBkPSJNMi44Myw2NS42NEwyLjg1LDYxbDAuNTQtMC4zNXY1LjRMMCw2OC4yNSAgICAgdi0wLjc4TDIuODMsNjUuNjR6Ii8+JiN4YTsJCTwvZz4mI3hhOwkJPGcgaWQ9InNoYXBlODUzMy04OCIgdHJhbnNmb3JtPSJ0cmFuc2xhdGUoMzIuNTc2MiwtMjYuNTA4OCkiPiYjeGE7CQkJPHRpdGxlIGlkPSJ0aXRsZTE2OTUzMCI+U2hlZXQuODUzMzwvdGl0bGU+JiN4YTsJCQk8cGF0aCBpZD0icGF0aDE2OTUzMiIgaW5rc2NhcGU6Y29ubmVjdG9yLWN1cnZhdHVyZT0iMCIgc3R5bGU9ImZpbGw6I0U0RTRFNDsiIGQ9Ik0yLjgzLDY1LjZMMi44NSw2MWwwLjU0LTAuMzV2NS40TDAsNjguMjUgICAgIHYtMC43OEwyLjgzLDY1LjZ6Ii8+JiN4YTsJCTwvZz4mI3hhOwkJPGcgaWQ9InNoYXBlODUzNC05MCIgdHJhbnNmb3JtPSJ0cmFuc2xhdGUoMzIuNTc2MiwtMTguNzYyMikiPiYjeGE7CQkJPHRpdGxlIGlkPSJ0aXRsZTE2OTUzNSI+U2hlZXQuODUzNDwvdGl0bGU+JiN4YTsJCQk8cGF0aCBpZD0icGF0aDE2OTUzNyIgaW5rc2NhcGU6Y29ubmVjdG9yLWN1cnZhdHVyZT0iMCIgc3R5bGU9ImZpbGw6I0U0RTRFNDsiIGQ9Ik0yLjgzLDY1LjYybDAuMDItNC42bDAuNTQtMC4zN3Y1LjQyTDAsNjguMjUgICAgIHYtMC43OEwyLjgzLDY1LjYyeiIvPiYjeGE7CQk8L2c+JiN4YTsJCTxnIGlkPSJzaGFwZTg1MzUtOTIiIHRyYW5zZm9ybT0idHJhbnNsYXRlKDMyLjU3NjIsLTEwLjk5MikiPiYjeGE7CQkJPHRpdGxlIGlkPSJ0aXRsZTE2OTU0MCI+U2hlZXQuODUzNTwvdGl0bGU+JiN4YTsJCQk8cGF0aCBpZD0icGF0aDE2OTU0MiIgaW5rc2NhcGU6Y29ubmVjdG9yLWN1cnZhdHVyZT0iMCIgc3R5bGU9ImZpbGw6I0U0RTRFNDsiIGQ9Ik0yLjgzLDY1LjYybDAuMDItNC42NGwwLjU0LTAuMzN2NS40MkwwLDY4LjI1ICAgICB2LTAuNzhMMi44Myw2NS42MnoiLz4mI3hhOwkJPC9nPiYjeGE7CQk8ZyBpZD0ic2hhcGU4NTM2LTk0IiB0cmFuc2Zvcm09InRyYW5zbGF0ZSgyNy45ODMxLC0zMS40NTk5KSI+JiN4YTsJCQk8dGl0bGUgaWQ9InRpdGxlMTY5NTQ1Ij5TaGVldC44NTM2PC90aXRsZT4mI3hhOwkJCTxwYXRoIGlkPSJwYXRoMTY5NTQ3IiBpbmtzY2FwZTpjb25uZWN0b3ItY3VydmF0dXJlPSIwIiBzdHlsZT0iZmlsbDojRTRFNEU0OyIgZD0iTTIuODMsNjUuNnYtNC42MmwwLjU2LTAuMzN2NS40TDAsNjguMjV2LTAuNzggICAgIEwyLjgzLDY1LjZ6Ii8+JiN4YTsJCTwvZz4mI3hhOwkJPGcgaWQ9InNoYXBlODUzNy05NiIgdHJhbnNmb3JtPSJ0cmFuc2xhdGUoMjcuOTgzMSwtMjMuNjg5NykiPiYjeGE7CQkJPHRpdGxlIGlkPSJ0aXRsZTE2OTU1MCI+U2hlZXQuODUzNzwvdGl0bGU+JiN4YTsJCQk8cGF0aCBpZD0icGF0aDE2OTU1MiIgaW5rc2NhcGU6Y29ubmVjdG9yLWN1cnZhdHVyZT0iMCIgc3R5bGU9ImZpbGw6I0U0RTRFNDsiIGQ9Ik0yLjgzLDY1LjZ2LTQuNjJsMC41Ni0wLjMzdjUuNEwwLDY4LjI1di0wLjgzICAgICBMMi44Myw2NS42eiIvPiYjeGE7CQk8L2c+JiN4YTsJCTxnIGlkPSJzaGFwZTg1MzgtOTgiIHRyYW5zZm9ybT0idHJhbnNsYXRlKDI3Ljk4MzEsLTE1Ljk0MzIpIj4mI3hhOwkJCTx0aXRsZSBpZD0idGl0bGUxNjk1NTUiPlNoZWV0Ljg1Mzg8L3RpdGxlPiYjeGE7CQkJPHBhdGggaWQ9InBhdGgxNjk1NTciIGlua3NjYXBlOmNvbm5lY3Rvci1jdXJ2YXR1cmU9IjAiIHN0eWxlPSJmaWxsOiNFNEU0RTQ7IiBkPSJNMi44Myw2NS42MlY2MWwwLjU2LTAuMzh2NS40NUwwLDY4LjI1di0wLjgxICAgICBMMi44Myw2NS42MnoiLz4mI3hhOwkJPC9nPiYjeGE7CQk8ZyBpZD0ic2hhcGU4NTM5LTEwMCIgdHJhbnNmb3JtPSJ0cmFuc2xhdGUoMjcuOTgzMSwtOC4xNzI5NCkiPiYjeGE7CQkJPHRpdGxlIGlkPSJ0aXRsZTE2OTU2MCI+U2hlZXQuODUzOTwvdGl0bGU+JiN4YTsJCQk8cGF0aCBpZD0icGF0aDE2OTU2MiIgaW5rc2NhcGU6Y29ubmVjdG9yLWN1cnZhdHVyZT0iMCIgc3R5bGU9ImZpbGw6I0U0RTRFNDsiIGQ9Ik0yLjgzLDY1LjYydi00LjY0bDAuNTYtMC4zNnY1LjQ1TDAsNjguMjUgICAgIHYtMC44MUwyLjgzLDY1LjYyeiIvPiYjeGE7CQk8L2c+JiN4YTsJCTxnIGlkPSJzaGFwZTg1NDAtMTAyIiB0cmFuc2Zvcm09InRyYW5zbGF0ZSgyMy4zODk5LC0yOC42NDA4KSI+JiN4YTsJCQk8dGl0bGUgaWQ9InRpdGxlMTY5NTY1Ij5TaGVldC44NTQwPC90aXRsZT4mI3hhOwkJCTxwYXRoIGlkPSJwYXRoMTY5NTY3IiBpbmtzY2FwZTpjb25uZWN0b3ItY3VydmF0dXJlPSIwIiBzdHlsZT0iZmlsbDojRTRFNEU0OyIgZD0iTTIuODMsNjUuNnYtNC42MmwwLjU2LTAuMzZ2NS40TDAsNjguMjV2LTAuODEgICAgIEwyLjgzLDY1LjZ6Ii8+JiN4YTsJCTwvZz4mI3hhOwkJPGcgaWQ9InNoYXBlODU0MS0xMDQiIHRyYW5zZm9ybT0idHJhbnNsYXRlKDIzLjM4OTksLTIwLjg3MDYpIj4mI3hhOwkJCTx0aXRsZSBpZD0idGl0bGUxNjk1NzAiPlNoZWV0Ljg1NDE8L3RpdGxlPiYjeGE7CQkJPHBhdGggaWQ9InBhdGgxNjk1NzIiIGlua3NjYXBlOmNvbm5lY3Rvci1jdXJ2YXR1cmU9IjAiIHN0eWxlPSJmaWxsOiNFNEU0RTQ7IiBkPSJNMi44Myw2NS42di00LjYybDAuNTYtMC4zOHY1LjQyTDAsNjguMjV2LTAuODMgICAgIEwyLjgzLDY1LjZ6Ii8+JiN4YTsJCTwvZz4mI3hhOwkJPGcgaWQ9InNoYXBlODU0Mi0xMDYiIHRyYW5zZm9ybT0idHJhbnNsYXRlKDIzLjM4OTksLTEzLjE0NzgpIj4mI3hhOwkJCTx0aXRsZSBpZD0idGl0bGUxNjk1NzUiPlNoZWV0Ljg1NDI8L3RpdGxlPiYjeGE7CQkJPHBhdGggaWQ9InBhdGgxNjk1NzciIGlua3NjYXBlOmNvbm5lY3Rvci1jdXJ2YXR1cmU9IjAiIHN0eWxlPSJmaWxsOiNFNEU0RTQ7IiBkPSJNMi44Myw2NS42NHYtNC42MmwwLjU2LTAuMzd2NS40MkwwLDY4LjI1ICAgICB2LTAuNzhMMi44Myw2NS42NHoiLz4mI3hhOwkJPC9nPiYjeGE7CQk8ZyBpZD0ic2hhcGU4NTQzLTEwOCIgdHJhbnNmb3JtPSJ0cmFuc2xhdGUoMjMuMzg5OSwtNS4zNzc1NikiPiYjeGE7CQkJPHRpdGxlIGlkPSJ0aXRsZTE2OTU4MCI+U2hlZXQuODU0MzwvdGl0bGU+JiN4YTsJCQk8cGF0aCBpZD0icGF0aDE2OTU4MiIgaW5rc2NhcGU6Y29ubmVjdG9yLWN1cnZhdHVyZT0iMCIgc3R5bGU9ImZpbGw6I0U0RTRFNDsiIGQ9Ik0yLjgzLDY1LjY0VjYxbDAuNTYtMC4zNXY1LjQyTDAsNjguMjV2LTAuNzggICAgIEwyLjgzLDY1LjY0eiIvPiYjeGE7CQk8L2c+JiN4YTsJCTxnIGlkPSJzaGFwZTg1NDQtMTEwIiB0cmFuc2Zvcm09InRyYW5zbGF0ZSgyMS4zODc3LC01Mi45NDY1KSI+JiN4YTsJCQk8dGl0bGUgaWQ9InRpdGxlMTY5NTg1Ij5TaGVldC44NTQ0PC90aXRsZT4mI3hhOwkJCTxwYXRoIGlkPSJwYXRoMTY5NTg3IiBpbmtzY2FwZTpjb25uZWN0b3ItY3VydmF0dXJlPSIwIiBzdHlsZT0iZmlsbDojQjZCM0IxOyIgZD0iTTAsNTQuMzJ2My4xM2wxNi41NiwxMC44bDIuMzgtMS41NkwwLDU0LjMyeiIvPiYjeGE7CQk8L2c+JiN4YTsJCTxnIGlkPSJzaGFwZTg1NDUtMTEyIiB0cmFuc2Zvcm09InRyYW5zbGF0ZSgzNy45NDY3LC01Mi45NDY1KSI+JiN4YTsJCQk8dGl0bGUgaWQ9InRpdGxlMTY5NTkwIj5TaGVldC44NTQ1PC90aXRsZT4mI3hhOwkJCTxwYXRoIGlkPSJwYXRoMTY5NTkyIiBpbmtzY2FwZTpjb25uZWN0b3ItY3VydmF0dXJlPSIwIiBzdHlsZT0iZmlsbDojRjRGMkYyOyIgZD0iTTIuMzgsNjYuNjlMMCw2OC4yNWwwLDBsMi40LTEuNTRMMi4zOCw2Ni42OXoiLz4mI3hhOwkJPC9nPiYjeGE7CQk8ZyBpZD0ic2hhcGU4NTQ2LTExNCIgdHJhbnNmb3JtPSJ0cmFuc2xhdGUoMi4zNzkwMywtNTIuOTcwMSkiPiYjeGE7CQkJPHRpdGxlIGlkPSJ0aXRsZTE2OTU5NSI+U2hlZXQuODU0NjwvdGl0bGU+JiN4YTsJCQk8cGF0aCBpZD0icGF0aDE2OTU5NyIgaW5rc2NhcGU6Y29ubmVjdG9yLWN1cnZhdHVyZT0iMCIgc3R5bGU9ImZpbGw6Izk2OTI4RjsiIGQ9Ik0yLjQzLDY4LjI1bDE2LjU4LTEwLjh2LTMuMTNMMCw2Ni43MSAgICAgTDIuNDMsNjguMjV6Ii8+JiN4YTsJCTwvZz4mI3hhOwkJPGcgaWQ9InNoYXBlODU0Ny0xMTYiIHRyYW5zZm9ybT0idHJhbnNsYXRlKDM3LjE0NTksLTM3Ljg3OTgpIj4mI3hhOwkJCTx0aXRsZSBpZD0idGl0bGUxNjk2MDAiPlNoZWV0Ljg1NDc8L3RpdGxlPiYjeGE7CQkJPHBhdGggaWQ9InBhdGgxNjk2MDIiIGlua3NjYXBlOmNvbm5lY3Rvci1jdXJ2YXR1cmU9IjAiIHN0eWxlPSJmaWxsOiM1MDlEQkY7IiBkPSJNMi44Nyw2MS43OGwtMi44MiwxLjgzTDAsNjguMjVsMi44Ny0xLjgyICAgICBWNjEuNzh6Ii8+JiN4YTsJCTwvZz4mI3hhOwkJPGcgaWQ9InNoYXBlODU0OC0xMTgiIHRyYW5zZm9ybT0idHJhbnNsYXRlKDM3LjE0NTksLTMwLjEwOTYpIj4mI3hhOwkJCTx0aXRsZSBpZD0idGl0bGUxNjk2MDUiPlNoZWV0Ljg1NDg8L3RpdGxlPiYjeGE7CQkJPHBhdGggaWQ9InBhdGgxNjk2MDciIGlua3NjYXBlOmNvbm5lY3Rvci1jdXJ2YXR1cmU9IjAiIHN0eWxlPSJmaWxsOiM1MDlEQkY7IiBkPSJNMi44Nyw2MS43OGwtMi44MiwxLjgzTDAsNjguMjVsMi44Ny0xLjg1ICAgICBWNjEuNzh6Ii8+JiN4YTsJCTwvZz4mI3hhOwkJPGcgaWQ9InNoYXBlODU0OS0xMjAiIHRyYW5zZm9ybT0idHJhbnNsYXRlKDM3LjE0NTksLTIyLjM2MzEpIj4mI3hhOwkJCTx0aXRsZSBpZD0idGl0bGUxNjk2MTAiPlNoZWV0Ljg1NDk8L3RpdGxlPiYjeGE7CQkJPHBhdGggaWQ9InBhdGgxNjk2MTIiIGlua3NjYXBlOmNvbm5lY3Rvci1jdXJ2YXR1cmU9IjAiIHN0eWxlPSJmaWxsOiM1MDlEQkY7IiBkPSJNMi44Nyw2MS44MWwtMi44MiwxLjgyTDAsNjguMjVsMi44Ny0xLjgyICAgICBWNjEuODF6Ii8+JiN4YTsJCTwvZz4mI3hhOwkJPGcgaWQ9InNoYXBlODU1MC0xMjIiIHRyYW5zZm9ybT0idHJhbnNsYXRlKDM3LjE0NTksLTE0LjU5MjgpIj4mI3hhOwkJCTx0aXRsZSBpZD0idGl0bGUxNjk2MTUiPlNoZWV0Ljg1NTA8L3RpdGxlPiYjeGE7CQkJPHBhdGggaWQ9InBhdGgxNjk2MTciIGlua3NjYXBlOmNvbm5lY3Rvci1jdXJ2YXR1cmU9IjAiIHN0eWxlPSJmaWxsOiM1MDlEQkY7IiBkPSJNMi44Nyw2MS43OGwtMi44MiwxLjg1TDAsNjguMjVsMi44Ny0xLjgyICAgICBWNjEuNzh6Ii8+JiN4YTsJCTwvZz4mI3hhOwkJPGcgaWQ9InNoYXBlODU1MS0xMjQiIHRyYW5zZm9ybT0idHJhbnNsYXRlKDMyLjU3NjIsLTM1LjA2MDcpIj4mI3hhOwkJCTx0aXRsZSBpZD0idGl0bGUxNjk2MjAiPlNoZWV0Ljg1NTE8L3RpdGxlPiYjeGE7CQkJPHBhdGggaWQ9InBhdGgxNjk2MjIiIGlua3NjYXBlOmNvbm5lY3Rvci1jdXJ2YXR1cmU9IjAiIHN0eWxlPSJmaWxsOiM1MDlEQkY7IiBkPSJNMi44NSw2MS43OEwwLDYzLjYxdjQuNjRsMi44My0xLjgyTDIuODUsNjEuNzggICAgIHoiLz4mI3hhOwkJPC9nPiYjeGE7CQk8ZyBpZD0ic2hhcGU4NTUyLTEyNiIgdHJhbnNmb3JtPSJ0cmFuc2xhdGUoMzIuNTc2MiwtMjcuMjkwNSkiPiYjeGE7CQkJPHRpdGxlIGlkPSJ0aXRsZTE2OTYyNSI+U2hlZXQuODU1MjwvdGl0bGU+JiN4YTsJCQk8cGF0aCBpZD0icGF0aDE2OTYyNyIgaW5rc2NhcGU6Y29ubmVjdG9yLWN1cnZhdHVyZT0iMCIgc3R5bGU9ImZpbGw6IzUwOURCRjsiIGQ9Ik0yLjg1LDYxLjc4TDAsNjMuNjF2NC42NGwyLjgzLTEuODdMMi44NSw2MS43OCAgICAgeiIvPiYjeGE7CQk8L2c+JiN4YTsJCTxnIGlkPSJzaGFwZTg1NTMtMTI4IiB0cmFuc2Zvcm09InRyYW5zbGF0ZSgzMi41NzYyLC0xOS41NDQpIj4mI3hhOwkJCTx0aXRsZSBpZD0idGl0bGUxNjk2MzAiPlNoZWV0Ljg1NTM8L3RpdGxlPiYjeGE7CQkJPHBhdGggaWQ9InBhdGgxNjk2MzIiIGlua3NjYXBlOmNvbm5lY3Rvci1jdXJ2YXR1cmU9IjAiIHN0eWxlPSJmaWxsOiM1MDlEQkY7IiBkPSJNMi44NSw2MS44MUwwLDYzLjYzdjQuNjJsMi44My0xLjg1TDIuODUsNjEuODEgICAgIHoiLz4mI3hhOwkJPC9nPiYjeGE7CQk8ZyBpZD0ic2hhcGU4NTU0LTEzMCIgdHJhbnNmb3JtPSJ0cmFuc2xhdGUoMzIuNTc2MiwtMTEuNzczOCkiPiYjeGE7CQkJPHRpdGxlIGlkPSJ0aXRsZTE2OTYzNSI+U2hlZXQuODU1NDwvdGl0bGU+JiN4YTsJCQk8cGF0aCBpZD0icGF0aDE2OTYzNyIgaW5rc2NhcGU6Y29ubmVjdG9yLWN1cnZhdHVyZT0iMCIgc3R5bGU9ImZpbGw6IzUwOURCRjsiIGQ9Ik0yLjg1LDYxLjc2TDAsNjMuNjN2NC42MmwyLjgzLTEuODVMMi44NSw2MS43NiAgICAgeiIvPiYjeGE7CQk8L2c+JiN4YTsJCTxnIGlkPSJzaGFwZTg1NTUtMTMyIiB0cmFuc2Zvcm09InRyYW5zbGF0ZSgyNy45ODMxLC0zMi4yNDE3KSI+JiN4YTsJCQk8dGl0bGUgaWQ9InRpdGxlMTY5NjQwIj5TaGVldC44NTU1PC90aXRsZT4mI3hhOwkJCTxwYXRoIGlkPSJwYXRoMTY5NjQyIiBpbmtzY2FwZTpjb25uZWN0b3ItY3VydmF0dXJlPSIwIiBzdHlsZT0iZmlsbDojNTA5REJGOyIgZD0iTTIuODMsNjEuNzZMMCw2My42MXY0LjY0bDIuODMtMS44N1Y2MS43NnoiLz4mI3hhOwkJPC9nPiYjeGE7CQk8ZyBpZD0ic2hhcGU4NTU2LTEzNCIgdHJhbnNmb3JtPSJ0cmFuc2xhdGUoMjcuOTgzMSwtMjQuNTE4OCkiPiYjeGE7CQkJPHRpdGxlIGlkPSJ0aXRsZTE2OTY0NSI+U2hlZXQuODU1NjwvdGl0bGU+JiN4YTsJCQk8cGF0aCBpZD0icGF0aDE2OTY0NyIgaW5rc2NhcGU6Y29ubmVjdG9yLWN1cnZhdHVyZT0iMCIgc3R5bGU9ImZpbGw6IzUwOURCRjsiIGQ9Ik0yLjgzLDYxLjgxTDAsNjMuNjV2NC42bDIuODMtMS44MlY2MS44MXoiLz4mI3hhOwkJPC9nPiYjeGE7CQk8ZyBpZD0ic2hhcGU4NTU3LTEzNiIgdHJhbnNmb3JtPSJ0cmFuc2xhdGUoMjcuOTgzMSwtMTYuNzQ4NikiPiYjeGE7CQkJPHRpdGxlIGlkPSJ0aXRsZTE2OTY1MCI+U2hlZXQuODU1NzwvdGl0bGU+JiN4YTsJCQk8cGF0aCBpZD0icGF0aDE2OTY1MiIgaW5rc2NhcGU6Y29ubmVjdG9yLWN1cnZhdHVyZT0iMCIgc3R5bGU9ImZpbGw6IzUwOURCRjsiIGQ9Ik0yLjgzLDYxLjgxTDAsNjMuNjV2NC42bDIuODMtMS44MlY2MS44MXoiLz4mI3hhOwkJPC9nPiYjeGE7CQk8ZyBpZD0ic2hhcGU4NTU4LTEzOCIgdHJhbnNmb3JtPSJ0cmFuc2xhdGUoMjcuOTgzMSwtOC45NzgzOSkiPiYjeGE7CQkJPHRpdGxlIGlkPSJ0aXRsZTE2OTY1NSI+U2hlZXQuODU1ODwvdGl0bGU+JiN4YTsJCQk8cGF0aCBpZD0icGF0aDE2OTY1NyIgaW5rc2NhcGU6Y29ubmVjdG9yLWN1cnZhdHVyZT0iMCIgc3R5bGU9ImZpbGw6IzUwOURCRjsiIGQ9Ik0yLjgzLDYxLjc4TDAsNjMuNjV2NC42bDIuODMtMS44MlY2MS43OHoiLz4mI3hhOwkJPC9nPiYjeGE7CQk8ZyBpZD0ic2hhcGU4NTU5LTE0MCIgdHJhbnNmb3JtPSJ0cmFuc2xhdGUoMjMuMzg5OSwtMjkuNDQ2MykiPiYjeGE7CQkJPHRpdGxlIGlkPSJ0aXRsZTE2OTY2MCI+U2hlZXQuODU1OTwvdGl0bGU+JiN4YTsJCQk8cGF0aCBpZD0icGF0aDE2OTY2MiIgaW5rc2NhcGU6Y29ubmVjdG9yLWN1cnZhdHVyZT0iMCIgc3R5bGU9ImZpbGw6IzUwOURCRjsiIGQ9Ik0yLjgzLDYxLjc4TDAsNjMuNjF2NC42NGwyLjgzLTEuODVWNjEuNzh6Ii8+JiN4YTsJCTwvZz4mI3hhOwkJPGcgaWQ9InNoYXBlODU2MC0xNDIiIHRyYW5zZm9ybT0idHJhbnNsYXRlKDIzLjM4OTksLTIxLjY5OTgpIj4mI3hhOwkJCTx0aXRsZSBpZD0idGl0bGUxNjk2NjUiPlNoZWV0Ljg1NjA8L3RpdGxlPiYjeGE7CQkJPHBhdGggaWQ9InBhdGgxNjk2NjciIGlua3NjYXBlOmNvbm5lY3Rvci1jdXJ2YXR1cmU9IjAiIHN0eWxlPSJmaWxsOiM1MDlEQkY7IiBkPSJNMi44Myw2MS44MUwwLDYzLjYzdjQuNjJsMi44My0xLjgyVjYxLjgxeiIvPiYjeGE7CQk8L2c+JiN4YTsJCTxnIGlkPSJzaGFwZTg1NjEtMTQ0IiB0cmFuc2Zvcm09InRyYW5zbGF0ZSgyMy4zODk5LC0yMS42NzYxKSI+JiN4YTsJCQk8dGl0bGUgaWQ9InRpdGxlMTY5NjcwIj5TaGVldC44NTYxPC90aXRsZT4mI3hhOwkJCTxwYXRoIGlkPSJwYXRoMTY5NjcyIiBpbmtzY2FwZTpjb25uZWN0b3ItY3VydmF0dXJlPSIwIiBzdHlsZT0iZmlsbDojNjdDMEU4OyIgZD0iTTIuODMsNjEuNzhMMi44Myw2MS43OHY0LjYyTDAsNjguMjN2MC4wMiAgICAgbDIuODMtMS44NVY2MS43OHoiLz4mI3hhOwkJPC9nPiYjeGE7CQk8ZyBpZD0ic2hhcGU4NTYyLTE0NiIgdHJhbnNmb3JtPSJ0cmFuc2xhdGUoMjMuMzg5OSwtMTMuOTI5NSkiPiYjeGE7CQkJPHRpdGxlIGlkPSJ0aXRsZTE2OTY3NSI+U2hlZXQuODU2MjwvdGl0bGU+JiN4YTsJCQk8cGF0aCBpZD0icGF0aDE2OTY3NyIgaW5rc2NhcGU6Y29ubmVjdG9yLWN1cnZhdHVyZT0iMCIgc3R5bGU9ImZpbGw6IzUwOURCRjsiIGQ9Ik0yLjgzLDYxLjgxTDAsNjMuNjN2NC42MmwyLjgzLTEuODJWNjEuODF6Ii8+JiN4YTsJCTwvZz4mI3hhOwkJPGcgaWQ9InNoYXBlODU2My0xNDgiIHRyYW5zZm9ybT0idHJhbnNsYXRlKDIzLjM4OTksLTEzLjkyOTUpIj4mI3hhOwkJCTx0aXRsZSBpZD0idGl0bGUxNjk2ODAiPlNoZWV0Ljg1NjM8L3RpdGxlPiYjeGE7CQkJPHBhdGggaWQ9InBhdGgxNjk2ODIiIGlua3NjYXBlOmNvbm5lY3Rvci1jdXJ2YXR1cmU9IjAiIHN0eWxlPSJmaWxsOiM2N0MwRTg7IiBkPSJNMi44Myw2MS44MUwyLjgzLDYxLjgxdjQuNjJMMCw2OC4yNWwwLDAgICAgIGwyLjgzLTEuODJWNjEuODF6Ii8+JiN4YTsJCTwvZz4mI3hhOwkJPGcgaWQ9InNoYXBlODU2NC0xNTAiIHRyYW5zZm9ybT0idHJhbnNsYXRlKDIzLjM4OTksLTYuMTU5MzIpIj4mI3hhOwkJCTx0aXRsZSBpZD0idGl0bGUxNjk2ODUiPlNoZWV0Ljg1NjQ8L3RpdGxlPiYjeGE7CQkJPHBhdGggaWQ9InBhdGgxNjk2ODciIGlua3NjYXBlOmNvbm5lY3Rvci1jdXJ2YXR1cmU9IjAiIHN0eWxlPSJmaWxsOiM1MDlEQkY7IiBkPSJNMi44Myw2MS43OEwwLDYzLjYzdjQuNjJsMi44My0xLjgyVjYxLjc4eiIvPiYjeGE7CQk8L2c+JiN4YTsJCTxnIGlkPSJzaGFwZTg1NjUtMTUyIiB0cmFuc2Zvcm09InRyYW5zbGF0ZSgyMy4zODk5LC02LjE1OTMyKSI+JiN4YTsJCQk8dGl0bGUgaWQ9InRpdGxlMTY5NjkwIj5TaGVldC44NTY1PC90aXRsZT4mI3hhOwkJCTxwYXRoIGlkPSJwYXRoMTY5NjkyIiBpbmtzY2FwZTpjb25uZWN0b3ItY3VydmF0dXJlPSIwIiBzdHlsZT0iZmlsbDojNjdDMEU4OyIgZD0iTTIuODMsNjEuNzhMMi44Myw2MS43OHY0LjY1TDAsNjguMjVsMCwwICAgICBsMi44My0xLjgyVjYxLjc4eiIvPiYjeGE7CQk8L2c+JiN4YTsJCTxnIGlkPSJzaGFwZTg1NjYtMTU0IiB0cmFuc2Zvcm09InRyYW5zbGF0ZSgyLjc1NTkxLC00NS44NjAzKSI+JiN4YTsJCQk8dGl0bGUgaWQ9InRpdGxlMTY5Njk1Ij5TaGVldC44NTY2PC90aXRsZT4mI3hhOwkJCTxwYXRoIGlkPSJwYXRoMTY5Njk3IiBpbmtzY2FwZTpjb25uZWN0b3ItY3VydmF0dXJlPSIwIiBzdHlsZT0iZmlsbDojRkZGRkZGOyIgZD0iTTEuMDgsNjguMDZjLTAuMzMtMC4yMi0wLjYxLTAuNS0wLjgtMC45MyAgICAgQzAuMDksNjYuNzUsMCw2Ni4zOCwwLDY1Ljk1YzAtMC40NSwwLjA5LTAuNzQsMC4yOC0wLjg1YzAuMjQtMC4xNSwwLjQ3LTAuMDcsMC44NSwwLjE0YzAuMzMsMC4xOSwwLjU3LDAuNTIsMC43NSwwLjkgICAgIGMwLjI0LDAuMzgsMC4zMywwLjc4LDAuMzMsMS4xOGMwLDAuNDUtMC4wOSwwLjc0LTAuMzMsMC44NkMxLjcsNjguMzIsMS40MSw2OC4yNywxLjA4LDY4LjA2eiBNMS4xMSw2NS42MiAgICAgYy0wLjIxLTAuMTItMC4zOC0wLjE0LTAuNS0wLjA1Yy0wLjE2LDAuMTItMC4yMywwLjMxLTAuMjMsMC42MmMwLDAuMjgsMC4wNywwLjYxLDAuMTksMC44NWMwLjE2LDAuMjgsMC4zMywwLjQ3LDAuNTEsMC42MSAgICAgYzAuMjIsMC4xNSwwLjQsMC4xOSwwLjUyLDAuMWMwLjE0LTAuMSwwLjE5LTAuMzMsMC4xOS0wLjY0cy0wLjA1LTAuNjQtMC4xOS0wLjg4QzEuNDgsNjUuOTcsMS4zMiw2NS43NiwxLjExLDY1LjYyeiIvPiYjeGE7CQk8L2c+JiN4YTsJCTxnIGlkPSJzaGFwZTg1NjctMTU2IiB0cmFuc2Zvcm09InRyYW5zbGF0ZSg1LjM3MDQ5LC00My44NDk2KSI+JiN4YTsJCQk8dGl0bGUgaWQ9InRpdGxlMTY5NzAwIj5TaGVldC44NTY3PC90aXRsZT4mI3hhOwkJCTxwYXRoIGlkPSJwYXRoMTY5NzAyIiBpbmtzY2FwZTpjb25uZWN0b3ItY3VydmF0dXJlPSIwIiBzdHlsZT0iZmlsbDojRkZGRkZGOyIgZD0iTTEuOTYsNjguMjVjLTAuNDMtMC4yNC0wLjQzLTAuMjQtMC40My0wLjI0ICAgICBjLTEuMDgtMi43NC0xLjA4LTIuNzQtMS4wOC0yLjc0Yy0wLjA1LTAuMDgtMC4wNy0wLjE1LTAuMDctMC4xOWMwLTAuMDUsMC0wLjA1LDAtMC4wNWMwLDAuMDcsMCwwLjI0LDAsMC40MiAgICAgYzAsMS44MSwwLDEuODEsMCwxLjgxQzAsNjYuOTksMCw2Ni45OSwwLDY2Ljk5YzAtMi43NCwwLTIuNzQsMC0yLjc0YzAuNDUsMC4yOCwwLjQ1LDAuMjgsMC40NSwwLjI4ICAgICBjMS4wNiwyLjY4LDEuMDYsMi42OCwxLjA2LDIuNjhjMC4wNywwLjA5LDAuMDcsMC4xNiwwLjA5LDAuMjNsMCwwYzAtMC4wOSwwLTAuMjMsMC0wLjM3YzAtMS43OCwwLTEuNzgsMC0xLjc4ICAgICBjMC4zNiwwLjIxLDAuMzYsMC4yMSwwLjM2LDAuMjFWNjguMjV6Ii8+JiN4YTsJCTwvZz4mI3hhOwkJPGcgaWQ9InNoYXBlODU2OC0xNTgiIHRyYW5zZm9ybT0idHJhbnNsYXRlKDcuODQzNzQsLTQzLjg0OTYpIj4mI3hhOwkJCTx0aXRsZSBpZD0idGl0bGUxNjk3MDUiPlNoZWV0Ljg1Njg8L3RpdGxlPiYjeGE7CQkJPHBhdGggaWQ9InBhdGgxNjk3MDciIGlua3NjYXBlOmNvbm5lY3Rvci1jdXJ2YXR1cmU9IjAiIHN0eWxlPSJmaWxsOiNGRkZGRkY7IiBkPSJNMC45LDY4LjI1TDAsNjcuNjh2LTAuMzFsMC45LDAuNTdWNjguMjV6Ii8+JiN4YTsJCTwvZz4mI3hhOwkJPGcgaWQ9InNoYXBlODU2OS0xNjAiIHRyYW5zZm9ybT0idHJhbnNsYXRlKDkuMjA5OTIsLTQyLjM1NzIpIj4mI3hhOwkJCTx0aXRsZSBpZD0idGl0bGUxNjk3MTAiPlNoZWV0Ljg1Njk8L3RpdGxlPiYjeGE7CQkJPHBhdGggaWQ9InBhdGgxNjk3MTIiIGlua3NjYXBlOmNvbm5lY3Rvci1jdXJ2YXR1cmU9IjAiIHN0eWxlPSJmaWxsOiNGRkZGRkY7IiBkPSJNMC4zOCw2Ny4yM2MwLDEuMDIsMCwxLjAyLDAsMS4wMiAgICAgQzAsNjcuOTksMCw2Ny45OSwwLDY3Ljk5YzAtMi43NSwwLTIuNzUsMC0yLjc1YzAuNzEsMC40NSwwLjcxLDAuNDUsMC43MSwwLjQ1YzAuMjYsMC4xOSwwLjQ0LDAuMzgsMC42MSwwLjY0ICAgICBjMC4xNCwwLjI0LDAuMjEsMC41LDAuMjEsMC43NmMwLDAuMjgtMC4wNywwLjQzLTAuMjEsMC41Yy0wLjE3LDAuMDktMC4zOCwwLjAyLTAuNjQtMC4xMkwwLjM4LDY3LjIzeiBNMC4zOCw2NS44OCAgICAgYzAsMS4wMiwwLDEuMDIsMCwxLjAyYzAuMjMsMC4xNCwwLjIzLDAuMTQsMC4yMywwLjE0YzAuMTksMC4xLDAuMjksMC4xNCwwLjM4LDAuMWMwLjA5LTAuMDMsMC4xNC0wLjEyLDAuMTQtMC4yOSAgICAgYzAtMC4zMy0wLjE2LTAuNTktMC40Ny0wLjhMMC4zOCw2NS44OHoiLz4mI3hhOwkJPC9nPiYjeGE7CQk8ZyBpZD0ic2hhcGU4NTcwLTE2MiIgdHJhbnNmb3JtPSJ0cmFuc2xhdGUoMTEuMTE3OSwtNDAuMjAxNCkiPiYjeGE7CQkJPHRpdGxlIGlkPSJ0aXRsZTE2OTcxNSI+U2hlZXQuODU3MDwvdGl0bGU+JiN4YTsJCQk8cGF0aCBpZD0icGF0aDE2OTcxNyIgaW5rc2NhcGU6Y29ubmVjdG9yLWN1cnZhdHVyZT0iMCIgc3R5bGU9ImZpbGw6I0ZGRkZGRjsiIGQ9Ik0xLjc5LDY4LjI1Yy0wLjQ1LTAuMjgtMC40NS0wLjI4LTAuNDUtMC4yOCAgICAgYy0wLjM3LTEtMC4zNy0xLTAuMzctMWMtMC4wMy0wLjA5LTAuMDUtMC4xNC0wLjEtMC4yMWMtMC4wMi0wLjA3LTAuMDUtMC4xMi0wLjA5LTAuMTljLTAuMDMtMC4wNy0wLjA1LTAuMS0wLjEtMC4xMiAgICAgYy0wLjA0LTAuMDctMC4wOS0wLjEtMC4xNC0wLjE0Yy0wLjE0LTAuMS0wLjE0LTAuMS0wLjE0LTAuMWMwLDEuMTQsMCwxLjE0LDAsMS4xNEMwLDY3LjExLDAsNjcuMTEsMCw2Ny4xMWMwLTIuNzUsMC0yLjc1LDAtMi43NSAgICAgYzAuNzgsMC40OCwwLjc4LDAuNDgsMC43OCwwLjQ4YzAuMDksMC4wNSwwLjE5LDAuMTQsMC4yOCwwLjI0YzAuMDksMC4wOSwwLjE2LDAuMTksMC4yNiwwLjI4YzAuMDcsMC4wOSwwLjA5LDAuMjQsMC4xNiwwLjM2ICAgICBjMC4wMywwLjA5LDAuMDMsMC4yMSwwLjAzLDAuMzVjMCwwLjEsMCwwLjE5LTAuMDMsMC4yNGMtMC4wNCwwLjA3LTAuMDcsMC4xNC0wLjA5LDAuMTZDMS4zNCw2Ni41LDEuMyw2Ni41LDEuMjIsNjYuNSAgICAgYy0wLjA3LDAuMDQtMC4xMSwwLTAuMjEtMC4wM2MwLDAuMDMsMCwwLjAzLDAsMC4wM2MwLjAzLDAuMDQsMC4xLDAuMDksMC4xMiwwLjE2YzAuMDIsMC4wNywwLjA3LDAuMSwwLjA3LDAuMTcgICAgIGMwLjAyLDAuMDUsMC4wNSwwLjA5LDAuMSwwLjE0YzAuMDIsMC4wNywwLjA0LDAuMTcsMC4wOSwwLjI0TDEuNzksNjguMjV6IE0wLjQsNjQuOTZjMCwwLjg3LDAsMC44NywwLDAuODcgICAgIGMwLjMzLDAuMjQsMC4zMywwLjI0LDAuMzMsMC4yNGMwLjA1LDAuMDIsMC4wOSwwLjA1LDAuMTQsMC4wNWMwLjA1LDAuMDUsMC4xLDAuMDUsMC4xNCwwYzAuMDMtMC4wMywwLjA1LTAuMDUsMC4xLTAuMSAgICAgYzAtMC4wMiwwLjAyLTAuMDksMC4wMi0wLjE5YzAtMC4xMS0wLjA3LTAuMjMtMC4xMi0wLjM4Yy0wLjA3LTAuMDktMC4xNi0wLjIxLTAuMjgtMC4yOEwwLjQsNjQuOTZ6Ii8+JiN4YTsJCTwvZz4mI3hhOwkJPGcgaWQ9InNoYXBlODU3MS0xNjQiIHRyYW5zZm9ybT0idHJhbnNsYXRlKDEzLjE2NzEsLTM5LjIwNjQpIj4mI3hhOwkJCTx0aXRsZSBpZD0idGl0bGUxNjk3MjAiPlNoZWV0Ljg1NzE8L3RpdGxlPiYjeGE7CQkJPHBhdGggaWQ9InBhdGgxNjk3MjIiIGlua3NjYXBlOmNvbm5lY3Rvci1jdXJ2YXR1cmU9IjAiIHN0eWxlPSJmaWxsOiNGRkZGRkY7IiBkPSJNMS4zMiw2OC4yNUwwLDY3LjQ0VjY0LjdsMS4yNSwwLjc4djAuMzggICAgIEwwLjQsNjUuMzF2MC43NmwwLjc4LDAuNTV2MC4zN0wwLjQsNjYuNXYwLjc4bDAuOTIsMC41OVY2OC4yNXoiLz4mI3hhOwkJPC9nPiYjeGE7CQk8ZyBpZD0ic2hhcGU4NTcyLTE2NiIgdHJhbnNmb3JtPSJ0cmFuc2xhdGUoMTQuODg2NiwtMzcuMzExMykiPiYjeGE7CQkJPHRpdGxlIGlkPSJ0aXRsZTE2OTcyNSI+U2hlZXQuODU3MjwvdGl0bGU+JiN4YTsJCQk8cGF0aCBpZD0icGF0aDE2OTcyNyIgaW5rc2NhcGU6Y29ubmVjdG9yLWN1cnZhdHVyZT0iMCIgc3R5bGU9ImZpbGw6I0ZGRkZGRjsiIGQ9Ik0yLjQ1LDY4LjI1Yy0wLjM4LTAuMjQtMC4zOC0wLjI0LTAuMzgtMC4yNCAgICAgYzAtMS44LDAtMS44LDAtMS44YzAtMC4xNCwwLTAuMzMsMC4wMy0wLjUybDAsMGMtMC4wMywwLjEtMC4wNSwwLjE3LTAuMDUsMC4yNGMtMC43MSwxLjYxLTAuNzEsMS42MS0wLjcxLDEuNjEgICAgIGMtMC4yOC0wLjE5LTAuMjgtMC4xOS0wLjI4LTAuMTlDMC40LDY0Ljg5LDAuNCw2NC44OSwwLjQsNjQuODljLTAuMDItMC4xLTAuMDUtMC4xOS0wLjA1LTAuMzRjLTAuMDQtMC4wMi0wLjA0LTAuMDItMC4wNC0wLjAyICAgICBjMC4wNCwwLjEyLDAuMDQsMC4zMSwwLjA0LDAuNTdjMCwxLjc4LDAsMS43OCwwLDEuNzhDMCw2Ni42NCwwLDY2LjY0LDAsNjYuNjRjMC0yLjc1LDAtMi43NSwwLTIuNzUgICAgIGMwLjU0LDAuMzYsMC41NCwwLjM2LDAuNTQsMC4zNmMwLjU5LDIuMiwwLjU5LDIuMiwwLjU5LDIuMmMwLjAyLDAuMTksMC4wNywwLjMzLDAuMDksMC4zOGwwLDBjMC4wMy0wLjEyLDAuMDgtMC4xOSwwLjEtMC4yNCAgICAgYzAuNjQtMS40MiwwLjY0LTEuNDIsMC42NC0xLjQyYzAuNDksMC4zMSwwLjQ5LDAuMzEsMC40OSwwLjMxVjY4LjI1eiIvPiYjeGE7CQk8L2c+JiN4YTsJPC9nPiYjeGE7PC9nPiYjeGE7PC9zdmc+;" parent="1" vertex="1">
          <mxGeometry x="275" y="712" width="43" height="68" as="geometry" />
        </mxCell>
        <mxCell id="4arxPXuvVTtr_ZgHesPV-19" value="" style="verticalLabelPosition=bottom;html=1;verticalAlign=top;align=center;strokeColor=none;fillColor=#00BEF2;shape=mxgraph.azure.cloud;" parent="1" vertex="1">
          <mxGeometry x="271.5" y="325" width="50" height="32.5" as="geometry" />
        </mxCell>
        <mxCell id="4arxPXuvVTtr_ZgHesPV-20" value="" style="image;aspect=fixed;html=1;points=[];align=center;fontSize=12;image=img/lib/azure2/databases/SQL_Server.svg;" parent="1" vertex="1">
          <mxGeometry x="784" y="627" width="51" height="51" as="geometry" />
        </mxCell>
        <mxCell id="4arxPXuvVTtr_ZgHesPV-26" value="SQL server - AZ&lt;br&gt;" style="text;html=1;strokeColor=none;fillColor=none;align=center;verticalAlign=middle;whiteSpace=wrap;rounded=0;" parent="1" vertex="1">
          <mxGeometry x="756.83" y="672" width="94.12" height="30" as="geometry" />
        </mxCell>
        <mxCell id="4arxPXuvVTtr_ZgHesPV-32" value="" style="image;aspect=fixed;html=1;points=[];align=center;fontSize=12;image=img/lib/azure2/storage/Storage_Accounts.svg;labelBackgroundColor=none;" parent="1" vertex="1">
          <mxGeometry x="779.89" y="175.8" width="48" height="38.4" as="geometry" />
        </mxCell>
        <mxCell id="4arxPXuvVTtr_ZgHesPV-33" value="" style="image;aspect=fixed;html=1;points=[];align=center;fontSize=12;image=img/lib/azure2/ai_machine_learning/Machine_Learning.svg;" parent="1" vertex="1">
          <mxGeometry x="577" y="173" width="48" height="51" as="geometry" />
        </mxCell>
        <mxCell id="4arxPXuvVTtr_ZgHesPV-34" value="Azure Machine Learning" style="text;html=1;strokeColor=none;fillColor=none;align=center;verticalAlign=middle;whiteSpace=wrap;rounded=0;" parent="1" vertex="1">
          <mxGeometry x="558" y="224" width="86" height="30" as="geometry" />
        </mxCell>
        <mxCell id="4arxPXuvVTtr_ZgHesPV-35" value="Storage account" style="text;html=1;strokeColor=none;fillColor=none;align=center;verticalAlign=middle;whiteSpace=wrap;rounded=0;" parent="1" vertex="1">
          <mxGeometry x="756.32" y="147" width="95.13" height="30" as="geometry" />
        </mxCell>
        <mxCell id="4arxPXuvVTtr_ZgHesPV-36" value="" style="endArrow=classic;html=1;rounded=0;" parent="1" target="4arxPXuvVTtr_ZgHesPV-33" edge="1">
          <mxGeometry width="50" height="50" relative="1" as="geometry">
            <mxPoint x="768" y="199" as="sourcePoint" />
            <mxPoint x="1067" y="194" as="targetPoint" />
          </mxGeometry>
        </mxCell>
        <mxCell id="4arxPXuvVTtr_ZgHesPV-40" value="Store" style="text;html=1;strokeColor=none;fillColor=none;align=center;verticalAlign=middle;whiteSpace=wrap;rounded=0;fontSize=14;" parent="1" vertex="1">
          <mxGeometry x="773.88" y="111" width="60" height="30" as="geometry" />
        </mxCell>
        <mxCell id="4arxPXuvVTtr_ZgHesPV-43" value="" style="shape=image;verticalLabelPosition=bottom;labelBackgroundColor=default;verticalAlign=top;aspect=fixed;imageAspect=0;image=https://symbols.getvecta.com/stencil_28/2_api-management.da91a7f852.svg;" parent="1" vertex="1">
          <mxGeometry x="453.5" y="173" width="63.58" height="51" as="geometry" />
        </mxCell>
        <mxCell id="4arxPXuvVTtr_ZgHesPV-44" value="" style="image;aspect=fixed;html=1;points=[];align=center;fontSize=12;image=img/lib/azure2/databases/SQL_Server.svg;" parent="1" vertex="1">
          <mxGeometry x="638" y="535" width="51" height="51" as="geometry" />
        </mxCell>
        <mxCell id="4arxPXuvVTtr_ZgHesPV-45" value="" style="image;aspect=fixed;html=1;points=[];align=center;fontSize=12;image=img/lib/azure2/databases/SQL_Server.svg;" parent="1" vertex="1">
          <mxGeometry x="638" y="627" width="51" height="51" as="geometry" />
        </mxCell>
        <mxCell id="4arxPXuvVTtr_ZgHesPV-46" value="Realtime endpoint" style="text;html=1;strokeColor=none;fillColor=none;align=center;verticalAlign=middle;whiteSpace=wrap;rounded=0;" parent="1" vertex="1">
          <mxGeometry x="442.29" y="224" width="86" height="30" as="geometry" />
        </mxCell>
        <mxCell id="4arxPXuvVTtr_ZgHesPV-47" value="Train and deploy model" style="text;html=1;strokeColor=none;fillColor=none;align=center;verticalAlign=middle;whiteSpace=wrap;rounded=0;fontSize=14;" parent="1" vertex="1">
          <mxGeometry x="456.25000000000006" y="111" width="185.17" height="30" as="geometry" />
        </mxCell>
        <mxCell id="4arxPXuvVTtr_ZgHesPV-48" value="" style="endArrow=classic;html=1;rounded=0;" parent="1" edge="1">
          <mxGeometry width="50" height="50" relative="1" as="geometry">
            <mxPoint x="577" y="198.1" as="sourcePoint" />
            <mxPoint x="521" y="198" as="targetPoint" />
          </mxGeometry>
        </mxCell>
        <mxCell id="4arxPXuvVTtr_ZgHesPV-50" value="SQL server - AZ&lt;br&gt;" style="text;html=1;strokeColor=none;fillColor=none;align=center;verticalAlign=middle;whiteSpace=wrap;rounded=0;" parent="1" vertex="1">
          <mxGeometry x="607.5" y="672" width="97" height="30" as="geometry" />
        </mxCell>
        <mxCell id="4arxPXuvVTtr_ZgHesPV-51" value="SQL server - DZ" style="text;html=1;strokeColor=none;fillColor=none;align=center;verticalAlign=middle;whiteSpace=wrap;rounded=0;" parent="1" vertex="1">
          <mxGeometry x="607.5" y="578" width="97" height="30" as="geometry" />
        </mxCell>
        <mxCell id="4arxPXuvVTtr_ZgHesPV-56" value="Ingest" style="text;html=1;strokeColor=none;fillColor=none;align=center;verticalAlign=middle;whiteSpace=wrap;rounded=0;fontSize=14;" parent="1" vertex="1">
          <mxGeometry x="746" y="475" width="60" height="30" as="geometry" />
        </mxCell>
        <mxCell id="4arxPXuvVTtr_ZgHesPV-57" value="1" style="ellipse;whiteSpace=wrap;html=1;aspect=fixed;fillColor=#d5e8d4;strokeColor=#82b366;align=center;" parent="1" vertex="1">
          <mxGeometry x="835.45" y="482" width="18.55" height="18.55" as="geometry" />
        </mxCell>
        <mxCell id="4arxPXuvVTtr_ZgHesPV-58" value="2" style="ellipse;whiteSpace=wrap;html=1;aspect=fixed;fillColor=#d5e8d4;strokeColor=#82b366;align=center;" parent="1" vertex="1">
          <mxGeometry x="835.45" y="116.73000000000002" width="18.55" height="18.55" as="geometry" />
        </mxCell>
        <mxCell id="4arxPXuvVTtr_ZgHesPV-60" value="3" style="ellipse;whiteSpace=wrap;html=1;aspect=fixed;fillColor=#d5e8d4;strokeColor=#82b366;align=center;" parent="1" vertex="1">
          <mxGeometry x="638" y="116.73000000000002" width="18.55" height="18.55" as="geometry" />
        </mxCell>
        <mxCell id="pXDiYT6CYKkFxJ1uAXYw-1" value="" style="rounded=1;whiteSpace=wrap;html=1;rotation=90;fillColor=#EEF0F1;strokeColor=none;" vertex="1" parent="1">
          <mxGeometry x="229" y="141" width="191" height="111" as="geometry" />
        </mxCell>
        <mxCell id="pXDiYT6CYKkFxJ1uAXYw-3" value="" style="endArrow=classic;html=1;rounded=0;" edge="1" parent="1" target="pXDiYT6CYKkFxJ1uAXYw-1">
          <mxGeometry width="50" height="50" relative="1" as="geometry">
            <mxPoint x="446" y="198.1" as="sourcePoint" />
            <mxPoint x="390" y="198" as="targetPoint" />
          </mxGeometry>
        </mxCell>
        <mxCell id="pXDiYT6CYKkFxJ1uAXYw-4" value="Consume" style="text;html=1;strokeColor=none;fillColor=none;align=center;verticalAlign=middle;whiteSpace=wrap;rounded=0;fontSize=14;" vertex="1" parent="1">
          <mxGeometry x="264.56" y="105.28" width="119.88" height="30" as="geometry" />
        </mxCell>
        <mxCell id="pXDiYT6CYKkFxJ1uAXYw-5" value="" style="shape=image;verticalLabelPosition=bottom;labelBackgroundColor=#ffffff;verticalAlign=top;aspect=fixed;imageAspect=0;image=data:image/svg+xml,PHN2ZyB4bWxuczpjYz0iaHR0cDovL2NyZWF0aXZlY29tbW9ucy5vcmcvbnMjIiB4bWxuczpkYz0iaHR0cDovL3B1cmwub3JnL2RjL2VsZW1lbnRzLzEuMS8iIHhtbG5zOmlua3NjYXBlPSJodHRwOi8vd3d3Lmlua3NjYXBlLm9yZy9uYW1lc3BhY2VzL2lua3NjYXBlIiB4bWxuczpyZGY9Imh0dHA6Ly93d3cudzMub3JnLzE5OTkvMDIvMjItcmRmLXN5bnRheC1ucyMiIHhtbG5zOnNvZGlwb2RpPSJodHRwOi8vc29kaXBvZGkuc291cmNlZm9yZ2UubmV0L0RURC9zb2RpcG9kaS0wLmR0ZCIgeG1sbnM6c3ZnPSJodHRwOi8vd3d3LnczLm9yZy8yMDAwL3N2ZyIgeG1sbnM9Imh0dHA6Ly93d3cudzMub3JnLzIwMDAvc3ZnIiB4bWxuczp4bGluaz0iaHR0cDovL3d3dy53My5vcmcvMTk5OS94bGluayIgdmVyc2lvbj0iMS4xIiBpZD0ic3ZnMTk2OTUxIiBpbmtzY2FwZTp2ZXJzaW9uPSIwLjkyLjMgKDI0MDU1NDYsIDIwMTgtMDMtMTEpIiBzb2RpcG9kaTpkb2NuYW1lPSJweXRob25fdG9vbHNfYW5kX3Nkay5zdmciIHg9IjBweCIgeT0iMHB4IiB2aWV3Qm94PSIwIDAgNDggNDgiIHN0eWxlPSJlbmFibGUtYmFja2dyb3VuZDpuZXcgMCAwIDQ4IDQ4OyIgeG1sOnNwYWNlPSJwcmVzZXJ2ZSI+JiN4YTs8c29kaXBvZGk6bmFtZWR2aWV3IGJvcmRlcmNvbG9yPSIjNjY2NjY2IiBib3JkZXJvcGFjaXR5PSIxIiBmaXQtbWFyZ2luLWJvdHRvbT0iMCIgZml0LW1hcmdpbi1sZWZ0PSIwIiBmaXQtbWFyZ2luLXJpZ2h0PSIwIiBmaXQtbWFyZ2luLXRvcD0iMCIgZ3JpZHRvbGVyYW5jZT0iMTAiIGd1aWRldG9sZXJhbmNlPSIxMCIgaWQ9Im5hbWVkdmlldzE5Njk1MyIgaW5rc2NhcGU6Y3VycmVudC1sYXllcj0ic3ZnMTk2OTUxIiBpbmtzY2FwZTpjeD0iMzIuMDAwMDE1IiBpbmtzY2FwZTpjeT0iMzIuMDAwNTg2IiBpbmtzY2FwZTpwYWdlb3BhY2l0eT0iMCIgaW5rc2NhcGU6cGFnZXNoYWRvdz0iMiIgaW5rc2NhcGU6d2luZG93LWhlaWdodD0iMTAxNyIgaW5rc2NhcGU6d2luZG93LW1heGltaXplZD0iMSIgaW5rc2NhcGU6d2luZG93LXdpZHRoPSIxOTIwIiBpbmtzY2FwZTp3aW5kb3cteD0iLTgiIGlua3NjYXBlOndpbmRvdy15PSItOCIgaW5rc2NhcGU6em9vbT0iMTAuMjcyOTE3IiBvYmplY3R0b2xlcmFuY2U9IjEwIiBwYWdlY29sb3I9IiNmZmZmZmYiIHNob3dncmlkPSJmYWxzZSI+JiN4YTsJPC9zb2RpcG9kaTpuYW1lZHZpZXc+JiN4YTs8ZyBpZD0iZzE5Njk0OSIgdHJhbnNmb3JtPSJ0cmFuc2xhdGUoLTcuNjUsLTcuNjQ5MjgwNikiPiYjeGE7CTx0aXRsZSBpZD0idGl0bGUxOTY5MDUiPlBhZ2UtMTwvdGl0bGU+JiN4YTsJPGcgaWQ9Imdyb3VwMTE3Ny0xIiB0cmFuc2Zvcm09InRyYW5zbGF0ZSg3LjY1LC03LjYxMzQyKSI+JiN4YTsJCTx0aXRsZSBpZD0idGl0bGUxOTY5MDciPlB5dGhvbiBUb29scyBhbmQgU0RLPC90aXRsZT4mI3hhOwkJPGcgaWQ9Imdyb3VwMTE3OC0yIj4mI3hhOwkJCTx0aXRsZSBpZD0idGl0bGUxOTY5MDkiPlNoZWV0LjExNzg8L3RpdGxlPiYjeGE7CQkJPGcgaWQ9Imdyb3VwMTE3OS0zIiB0cmFuc2Zvcm09InRyYW5zbGF0ZSgwLC0xMi4zMTQ3KSI+JiN4YTsJCQkJPHRpdGxlIGlkPSJ0aXRsZTE5NjkxMSI+U2hlZXQuMTE3OTwvdGl0bGU+JiN4YTsJCQkJPGcgaWQ9InNoYXBlMTE4MC00Ij4mI3hhOwkJCQkJPHRpdGxlIGlkPSJ0aXRsZTE5NjkxMyI+U2hlZXQuMTE4MDwvdGl0bGU+JiN4YTsJCQkJCTxwYXRoIGlkPSJwYXRoMTk2OTE1IiBpbmtzY2FwZTpjb25uZWN0b3ItY3VydmF0dXJlPSIwIiBzdHlsZT0iZmlsbDojMzc3MkE0OyIgZD0iTTAsNTEuMTdjMC4wMi0wLjA2LDAuMDQtMC4xMywwLjA1LTAuMiAgICAgICBjMC4wNC0wLjcsMC4wNC0xLjQsMC4xMS0yLjFjMC4yNC0yLjI2LDAuNzYtNC40NCwyLjE4LTYuMjhjMS4xLTEuNDQsMi41NC0yLjMsNC4zMy0yLjU0YzAuMjUtMC4wMywwLjUxLTAuMDQsMC43Ni0wLjA0ICAgICAgIGM1LjM5LDAsMTAuNzksMCwxNi4xOCwwYzAuMzEsMCwwLjMxLDAsMC4zMi0wLjMyYzAtMC4zNy0wLjAyLTAuNzUsMC0xLjEyYzAuMDEtMC4yMy0wLjA3LTAuMjktMC4yOS0wLjI5ICAgICAgIGMtMi45OCwwLjAxLTUuOTUsMC4wMS04LjkzLDAuMDFjLTAuNywwLTEuMzktMC4wMS0yLjA5LDBjLTAuMTksMC0wLjI2LTAuMDUtMC4yNS0wLjI1YzAtMS44My0wLjAxLTMuNjcsMC01LjUgICAgICAgYzAuMDEtMC44MiwwLjQtMS41MSwwLjkzLTIuMTFjMC43NC0wLjg0LDEuNjktMS4zNiwyLjcxLTEuNzVjMS4yNi0wLjQ4LDIuNTctMC43MywzLjg5LTAuODljMS44My0wLjIzLDMuNjYtMC4yNSw1LjQ5LTAuMTcgICAgICAgYzEuOTcsMC4wOCwzLjkyLDAuMzUsNS43OCwxLjA3YzEuMjYsMC40OSwyLjQsMS4xNiwzLjIzLDIuMjZjMC42OSwwLjkxLDEuMDEsMS45MiwwLjk1LDMuMDhjLTAuMDUsMC45My0wLjAyLDEuODctMC4wMSwyLjgxICAgICAgIGMwLDEuNzMsMC4wMSwzLjQ2LDAuMDEsNS4xOWMwLDEuMDIsMC4wMiwyLjA0LTAuMDUsMy4wNmMtMC4xNCwyLjQtMS4yOSw0LjExLTMuNTEsNS4wNGMtMS4wMSwwLjQyLTIuMDYsMC42MS0zLjE0LDAuNjEgICAgICAgYy0zLjgyLDAtNy42NS0wLjAxLTExLjQ3LDBjLTEuMjIsMC0yLjM5LDAuMjctMy40NSwwLjkxYy0xLjQsMC44NS0yLjIsMi4xNS0yLjY1LDMuN2MtMC4yMiwwLjc3LTAuMzEsMS41Ny0wLjMyLDIuMzcgICAgICAgYzAsMS43MywwLDMuNDYsMCw1LjE5YzAsMC4zNSwwLDAuMzUtMC4zNCwwLjM1Yy0xLjI1LDAtMi40OSwwLjA0LTMuNzQsMC4wMWMtMS4yNy0wLjA0LTIuMzctMC41NC0zLjMyLTEuMzcgICAgICAgYy0xLjEyLTAuOTYtMS44Mi0yLjE5LTIuMzEtMy41NmMtMC40Ni0xLjI1LTAuNzMtMi41NC0wLjg0LTMuODZjLTAuMDgtMC44NC0wLjExLTEuNjgtMC4xNi0yLjUyICAgICAgIEMwLjA0LDUxLjg3LDAuMDIsNTEuNzgsMCw1MS42OUMwLDUxLjUyLDAsNTEuMzUsMCw1MS4xN3oiLz4mI3hhOwkJCQk8L2c+JiN4YTsJCQkJPGcgaWQ9InNoYXBlMTE4MS02IiB0cmFuc2Zvcm09InRyYW5zbGF0ZSgxNS4yMDMzLC0yNy44MzIpIj4mI3hhOwkJCQkJPHRpdGxlIGlkPSJ0aXRsZTE5NjkxOCI+U2hlZXQuMTE4MTwvdGl0bGU+JiN4YTsJCQkJCTxwYXRoIGlkPSJwYXRoMTk2OTIwIiBpbmtzY2FwZTpjb25uZWN0b3ItY3VydmF0dXJlPSIwIiBkPSJNMCw2MS4xNWMwLDEuMTksMC45NCwyLjE1LDIuMTEsMi4xNWMxLjE1LDAsMi4xMS0wLjk3LDIuMTEtMi4xMyAgICAgICBjMC0xLjE5LTAuOTUtMi4xNi0yLjExLTIuMTVDMC45Myw1OS4wMywwLDU5Ljk3LDAsNjEuMTV6Ii8+JiN4YTsJCQkJPC9nPiYjeGE7CQkJCTxnIGlkPSJzaGFwZTExODItOCIgdHJhbnNmb3JtPSJ0cmFuc2xhdGUoMTUuMjAzMywtMjcuODMyKSI+JiN4YTsJCQkJCTx0aXRsZSBpZD0idGl0bGUxOTY5MjMiPlNoZWV0LjExODI8L3RpdGxlPiYjeGE7CQkJCQk8cGF0aCBpZD0icGF0aDE5NjkyNSIgaW5rc2NhcGU6Y29ubmVjdG9yLWN1cnZhdHVyZT0iMCIgc3R5bGU9ImZpbGw6I0ZGRkZGRjsiIGQ9Ik0wLDYxLjE1YzAtMS4xOCwwLjkzLTIuMTIsMi4xMS0yLjEzICAgICAgIGMxLjE2LTAuMDEsMi4xMSwwLjk2LDIuMTEsMi4xNWMwLDEuMTYtMC45NiwyLjEzLTIuMTEsMi4xM0MwLjk0LDYzLjMsMCw2Mi4zNCwwLDYxLjE1eiIvPiYjeGE7CQkJCTwvZz4mI3hhOwkJCTwvZz4mI3hhOwkJCTxnIGlkPSJncm91cDExODMtMTAiIHRyYW5zZm9ybT0idHJhbnNsYXRlKDEyLjU5NCkiPiYjeGE7CQkJCTx0aXRsZSBpZD0idGl0bGUxOTY5MjkiPlNoZWV0LjExODM8L3RpdGxlPiYjeGE7CQkJCTxnIGlkPSJzaGFwZTExODQtMTEiPiYjeGE7CQkJCQk8dGl0bGUgaWQ9InRpdGxlMTk2OTMxIj5TaGVldC4xMTg0PC90aXRsZT4mI3hhOwkJCQkJPHBhdGggaWQ9InBhdGgxOTY5MzMiIGlua3NjYXBlOmNvbm5lY3Rvci1jdXJ2YXR1cmU9IjAiIHN0eWxlPSJmaWxsOiNGRkRBNEI7IiBkPSJNMzUuNDEsMzkuNjZjLTAuMDIsMC4wNy0wLjA1LDAuMTQtMC4wNSwwLjIxICAgICAgIGMtMC4wNCwwLjctMC4wNSwxLjQtMC4xMiwyLjA5Yy0wLjIzLDIuMjctMC43NSw0LjQ1LTIuMTcsNi4yOWMtMS4xLDEuNDQtMi41NCwyLjMtNC4zNCwyLjUzYy0wLjI1LDAuMDQtMC41LDAuMDUtMC43NiwwLjA1ICAgICAgIGMtNS4zOSwwLTEwLjc4LDAtMTYuMTcsMGMtMC4zMiwwLTAuMzIsMC0wLjMyLDAuMzJjMCwwLjM3LDAuMDEsMC43NSwwLDEuMTJjLTAuMDIsMC4yMywwLjA3LDAuMjksMC4yOCwwLjI5ICAgICAgIGMyLjk4LTAuMDEsNS45Ni0wLjAxLDguOTQtMC4wMWMwLjY5LDAsMS4zOSwwLjAxLDIuMDksMGMwLjE5LDAsMC4yNSwwLjA1LDAuMjUsMC4yNWMtMC4wMSwxLjgzLDAuMDEsMy42Ny0wLjAxLDUuNSAgICAgICBjLTAuMDEsMC44Mi0wLjM5LDEuNTEtMC45MywyLjExYy0wLjc0LDAuODMtMS42OCwxLjM2LTIuNywxLjc1Yy0xLjI2LDAuNDgtMi41NywwLjcyLTMuOSwwLjg5Yy0xLjgyLDAuMjMtMy42NSwwLjI1LTUuNDgsMC4xNyAgICAgICBjLTEuOTctMC4wOS0zLjkyLTAuMzUtNS43OC0xLjA3Yy0xLjI2LTAuNDktMi40LTEuMTYtMy4yNC0yLjI3Yy0wLjY4LTAuOS0xLTEuOTItMC45NC0zLjA3YzAuMDUtMC45MywwLjAxLTEuODcsMC4wMS0yLjgxICAgICAgIGMwLTEuNzMtMC4wMS0zLjQ2LTAuMDEtNS4xOWMwLTEuMDItMC4wMi0yLjA0LDAuMDQtMy4wNmMwLjE0LTIuNCwxLjI5LTQuMTEsMy41Mi01LjA0YzEtMC40MywyLjA2LTAuNjEsMy4xNC0wLjYxICAgICAgIGMzLjgyLDAsNy42NCwwLjAxLDExLjQ2LDBjMS4yMywwLDIuNC0wLjI3LDMuNDYtMC45MWMxLjQtMC44NSwyLjItMi4xNSwyLjY0LTMuN2MwLjIyLTAuNzcsMC4zMi0xLjU3LDAuMzItMi4zNyAgICAgICBjMC4wMS0xLjczLDAtMy40NiwwLTUuMmMwLTAuMzQsMC0wLjM0LDAuMzUtMC4zNGMxLjI0LDAsMi40OS0wLjA0LDMuNzMtMC4wMWMxLjI3LDAuMDQsMi4zNywwLjU0LDMuMzMsMS4zNyAgICAgICBjMS4xMSwwLjk2LDEuODEsMi4xOSwyLjMxLDMuNTZjMC40NSwxLjI1LDAuNzIsMi41NCwwLjg0LDMuODZjMC4wNywwLjg0LDAuMTEsMS42OCwwLjE2LDIuNTFjMCwwLjEsMC4wMywwLjE5LDAuMDUsMC4yOCAgICAgICBDMzUuNDEsMzkuMzIsMzUuNDEsMzkuNDksMzUuNDEsMzkuNjZ6Ii8+JiN4YTsJCQkJPC9nPiYjeGE7CQkJCTxnIGlkPSJzaGFwZTExODUtMTMiIHRyYW5zZm9ybT0idHJhbnNsYXRlKDE1Ljk4MTMsLTMuOTEyKSI+JiN4YTsJCQkJCTx0aXRsZSBpZD0idGl0bGUxOTY5MzYiPlNoZWV0LjExODU8L3RpdGxlPiYjeGE7CQkJCQk8cGF0aCBpZD0icGF0aDE5NjkzOCIgaW5rc2NhcGU6Y29ubmVjdG9yLWN1cnZhdHVyZT0iMCIgZD0iTTQuMjIsNjEuMTZjMC0xLjE5LTAuOTQtMi4xNS0yLjExLTIuMTVDMC45Niw1OS4wMiwwLDU5Ljk4LDAsNjEuMTQgICAgICAgYzAsMS4xOSwwLjk1LDIuMTYsMi4xMiwyLjE1UzQuMjIsNjIuMzQsNC4yMiw2MS4xNnoiLz4mI3hhOwkJCQk8L2c+JiN4YTsJCQkJPGcgaWQ9InNoYXBlMTE4Ni0xNSIgdHJhbnNmb3JtPSJ0cmFuc2xhdGUoMTUuOTgwNywtMy45MTIpIj4mI3hhOwkJCQkJPHRpdGxlIGlkPSJ0aXRsZTE5Njk0MSI+U2hlZXQuMTE4NjwvdGl0bGU+JiN4YTsJCQkJCTxwYXRoIGlkPSJwYXRoMTk2OTQzIiBpbmtzY2FwZTpjb25uZWN0b3ItY3VydmF0dXJlPSIwIiBzdHlsZT0iZmlsbDojRkZGRkZGOyIgZD0iTTQuMjIsNjEuMTZjMCwxLjE4LTAuOTMsMi4xMi0yLjEsMi4xMyAgICAgICBDMC45NSw2My4zLDAsNjIuMzMsMCw2MS4xNGMwLTEuMTYsMC45Ni0yLjEyLDIuMTEtMi4xM0MzLjI4LDU5LjAxLDQuMjIsNTkuOTcsNC4yMiw2MS4xNnoiLz4mI3hhOwkJCQk8L2c+JiN4YTsJCQk8L2c+JiN4YTsJCTwvZz4mI3hhOwk8L2c+JiN4YTs8L2c+JiN4YTs8L3N2Zz4=;" vertex="1" parent="1">
          <mxGeometry x="301" y="150" width="42" height="42" as="geometry" />
        </mxCell>
        <mxCell id="pXDiYT6CYKkFxJ1uAXYw-6" value="" style="shape=image;verticalLabelPosition=bottom;labelBackgroundColor=default;verticalAlign=top;aspect=fixed;imageAspect=0;image=https://upload.wikimedia.org/wikipedia/commons/thumb/1/1b/R_logo.svg/724px-R_logo.svg.png?20240131042527;" vertex="1" parent="1">
          <mxGeometry x="290.89" y="221" width="54.21" height="42" as="geometry" />
        </mxCell>
      </root>
    </mxGraphModel>
  </diagram>
</mxfile>
